SplineFontDB: 3.0
FontName: font5122
FullName: font5122
FamilyName: SVGFont 1
Weight: Regular
Version: 1.0
ItalicAngle: 0
UnderlinePosition: 0
UnderlineWidth: 0
Ascent: 819
Descent: 205
InvalidEm: 0
sfntRevision: 0x00010000
woffMajor: 1
woffMinor: 0
LayerCount: 2
Layer: 0 0 "Back" 1
Layer: 1 0 "Fore" 0
XUID: [1021 360 1274862856 13353350]
StyleMap: 0x0040
FSType: 8
OS2Version: 3
OS2_WeightWidthSlopeOnly: 0
OS2_UseTypoMetrics: 0
CreationTime: 1589052807
ModificationTime: 1589117759
PfmFamily: 17
TTFWeight: 400
TTFWidth: 5
LineGap: 92
VLineGap: 0
Panose: 2 0 5 3 0 0 0 0 0 0
OS2TypoAscent: 819
OS2TypoAOffset: 0
OS2TypoDescent: -205
OS2TypoDOffset: 0
OS2TypoLinegap: 92
OS2WinAscent: 1010
OS2WinAOffset: 0
OS2WinDescent: -20
OS2WinDOffset: 0
HheadAscent: 1010
HheadAOffset: 0
HheadDescent: 20
HheadDOffset: 0
OS2SubXSize: 665
OS2SubYSize: 716
OS2SubXOff: 0
OS2SubYOff: 143
OS2SupXSize: 665
OS2SupYSize: 716
OS2SupXOff: 0
OS2SupYOff: 491
OS2StrikeYSize: 51
OS2StrikeYPos: 265
OS2CapHeight: 963
OS2Vendor: 'PfEd'
OS2CodePages: 00000001.00000000
OS2UnicodeRanges: 00000001.00000000.00000000.00000000
DEI: 91125
LangName: 1033 "" "" "" "FontForge 2.0 : font5122 : 9-5-2020" "" "Version 1.0"
Encoding: UnicodeBmp
UnicodeInterp: none
NameList: AGL For New Fonts
DisplaySize: -48
AntiAlias: 1
FitToEm: 0
WinInfo: 48 16 4
BeginPrivate: 7
BlueValues 15 [-20 0 944 985]
BlueScale 5 0.025
BlueShift 1 0
StdHW 4 [16]
StdVW 4 [20]
StemSnapH 24 [9 12 16 20 25 29 35 45]
StemSnapV 16 [13 20 26 33 49]
EndPrivate
BeginChars: 65536 27

StartChar: .notdef
Encoding: 0 -1 0
AltUni2: 000000.ffffffff.0
Width: 555
Flags: MW
HStem: 909.291 19.5811 985.31 19.8428
LayerCount: 2
Fore
SplineSet
52 875.00390625 m 1
 68.431640625 893.8359375 92.0126953125 904.220703125 112.766601562 916.208007812 c 0
 137.247070312 926.416992188 163.822265625 927.571289062 189.809570312 928.872070312 c 0
 222.631835938 930.008789062 255.38671875 927.755859375 288.013671875 924.22265625 c 0
 316.063476562 920.71875 343.58984375 914.010742188 370.7421875 905.979492188 c 0
 396.348632812 897.873046875 422.0390625 890.228515625 448.2890625 884.794921875 c 0
 467.205078125 881.263671875 486.493164062 880 505.6640625 881.553710938 c 0
 518.072265625 882.559570312 523.556640625 883.8046875 535.864257812 885.943359375 c 0
 565.51171875 892.463867188 594.146484375 903.28515625 621.250976562 917.404296875 c 0
 624.734375 919.501953125 635.279296875 925.610351562 631.701171875 923.696289062 c 0
 625.20703125 920.22265625 619.236328125 915.630859375 612.495117188 912.721679688 c 0
 609.901367188 911.602539062 616.98046875 916.272460938 619.065429688 918.243164062 c 0
 624.587890625 923.463867188 626.509765625 926.891601562 628.888671875 934.0546875 c 0
 631.20703125 949.081054688 623.301757812 959.352539062 613.8203125 969.430664062 c 0
 600.66015625 980.711914062 584.586914062 986.569335938 567.581054688 986.365234375 c 0
 562.981445312 986.310546875 558.40625 985.661132812 553.819335938 985.309570312 c 0
 525.526367188 980.373046875 499.522460938 967.27734375 474.448242188 953.1875 c 0
 473.810546875 952.828125 473.393554688 952.135742188 472.798828125 951.703125 c 0
 463.765625 945.125976562 454.649414062 938.676757812 445.575195312 932.1640625 c 0
 406.995117188 901.517578125 372.737304688 864.926757812 346.743164062 821.873046875 c 0
 328.423828125 791.53125 326.700195312 783.650390625 313.211914062 750.639648438 c 0
 309.541015625 737.561523438 305.138671875 724.686523438 302.19921875 711.405273438 c 0
 289.614257812 654.537109375 289.920898438 594.499023438 299.975585938 537.233398438 c 0
 302.581054688 522.397460938 306.55859375 507.864257812 309.850585938 493.1796875 c 0
 314.569335938 478.981445312 318.548828125 464.487304688 324.005859375 450.583984375 c 0
 340.2734375 409.134765625 363.038085938 369.2578125 394.951171875 338.916992188 c 0
 425.619140625 309.7578125 434.6484375 309.143554688 472.217773438 291.034179688 c 0
 488.733398438 287.046875 504.965820312 281.413085938 521.763671875 279.073242188 c 0
 588.15625 269.82421875 656.098632812 281.856445312 720.763671875 296.873046875 c 0
 748.389648438 303.2890625 775.627929688 311.426757812 803.060546875 318.704101562 c 1
 791.204101562 309.159179688 l 1
 730.594726562 292.520507812 691.880859375 279.985351562 630.565429688 270.204101562 c 0
 588.395507812 263.4765625 545.40234375 259.85546875 502.830078125 265.272460938 c 0
 485.638671875 267.459960938 469.002929688 273.090820312 452.088867188 277 c 0
 413.762695312 295.251953125 404.8046875 295.66015625 373.607421875 325.307617188 c 0
 341.44921875 355.868164062 318.514648438 396.118164062 302.123046875 437.869140625 c 0
 296.630859375 451.85546875 292.619140625 466.43359375 287.8671875 480.716796875 c 0
 284.51953125 495.466796875 280.49609375 510.064453125 277.825195312 524.965820312 c 0
 267.55078125 582.287109375 266.651367188 642.59765625 278.7421875 699.705078125 c 0
 281.568359375 713.052734375 285.884765625 726.00390625 289.456054688 739.153320312 c 0
 302.75 772.404296875 304.374023438 780.223632812 322.551757812 810.823242188 c 0
 348.135742188 853.88671875 381.932617188 890.673828125 420.040039062 921.611328125 c 0
 456.423828125 948.268554688 448.40234375 943.470703125 496.916015625 972.116210938 c 0
 517.533203125 984.290039062 539.755859375 995.05078125 562.661132812 1001.54199219 c 0
 568.169921875 1003.10253906 573.83984375 1003.94921875 579.4296875 1005.15234375 c 0
 584.219726562 1005.46972656 589.000976562 1006.11914062 593.80078125 1006.10449219 c 0
 611.6171875 1006.05273438 628.44921875 999.504882812 642.18359375 987.688476562 c 0
 652.522460938 976.767578125 660.932617188 965.51953125 659.454101562 949.244140625 c 0
 658.048828125 943.748046875 658.064453125 941.93359375 654.763671875 937.092773438 c 0
 652.344726562 933.543945312 646.259765625 927.440429688 642.959960938 925.234375 c 0
 619.928710938 909.83203125 614.328125 906.803710938 596.240234375 896.426757812 c 0
 568.953125 882.887695312 540.345703125 872.204101562 510.688476562 866.057617188 c 0
 497.859375 863.934570312 493.088867188 862.834960938 480.168945312 861.919921875 c 0
 460.75 860.545898438 441.259765625 861.971679688 422.124023438 865.624023438 c 0
 395.821289062 871.209960938 370.016601562 878.782226562 344.337890625 886.947265625 c 0
 317.43359375 894.844726562 290.180664062 901.599609375 262.40234375 905.083984375 c 0
 229.875 908.71484375 197.188476562 910.78125 164.46484375 909.291015625 c 0
 138.217773438 907.620117188 111.3984375 905.935546875 86.99609375 894.633789062 c 1
 93.6494140625 898.930664062 100.357421875 903.137695312 106.958007812 907.525390625 c 0
 109.231445312 909.037109375 102.251953125 904.779296875 99.9794921875 903.265625 c 0
 94.0966796875 899.346679688 88.7802734375 894.56640625 83.91796875 889.341796875 c 2
 52 875.00390625 l 1
EndSplineSet
EndChar

StartChar: Capital
Encoding: 65 65 1
Width: 509
GlyphClass: 2
Flags: HMW
HStem: 539.887 16.2207
VStem: 60.3789 33.168 484.252 24.6758
LayerCount: 2
Fore
SplineSet
302.45703125 790.458984375 m 5
 287.802734375 782.673828125 l 6
 275.606445312 778.977539062 264.869140625 772.00390625 254.416015625 766.912109375 c 4
 253.891601562 765.37890625 252.127929688 764.356445312 250.734375 763.259765625 c 4
 248.340820312 760.729492188 245.896484375 758.234375 243.390625 755.7734375 c 4
 241.088867188 753.606445312 238.900390625 751.352539062 236.591796875 749.20703125 c 4
 235.383789062 747.373046875 232.786132812 746.05859375 231.908203125 743.97265625 c 4
 228.76171875 739.923828125 225.696289062 735.821289062 221.765625 732.193359375 c 4
 217.47265625 727.930664062 213.799804688 723.372070312 209.99609375 718.84375 c 4
 205.711914062 714.291992188 202.045898438 709.420898438 198.3671875 704.560546875 c 4
 192.188476562 696.899414062 186.516601562 689.000976562 180.28125 681.3671875 c 4
 173.23828125 672.725585938 166.486328125 663.943359375 160.248046875 654.927734375 c 4
 153.245117188 644.506835938 146.928710938 633.801757812 140.41796875 623.189453125 c 4
 132.671875 609.22265625 124.659179688 595.32421875 118.55859375 580.84375 c 4
 110.989257812 563.514648438 104.578125 545.900390625 98.994140625 528.115234375 c 4
 93.0791015625 508.078125 86.9833984375 488.07421875 81.37890625 467.982421875 c 4
 75.3876953125 447.885742188 68.736328125 427.877929688 64.46484375 407.498046875 c 4
 59.2294921875 383.25390625 54.2734375 358.971679688 49.73828125 334.640625 c 4
 45.404296875 310.977539062 41.345703125 287.286132812 37.904296875 263.53125 c 4
 34.607421875 243.0625 32.0390625 222.536132812 29.63671875 201.9921875 c 4
 27.7548828125 186.456054688 25.9716796875 170.875 26.025390625 155.255859375 c 4
 26.0146484375 147.405273438 25.7294921875 139.4765625 27.37890625 131.703125 c 4
 28.509765625 127.518554688 29.9208984375 123.387695312 30.349609375 119.1015625 c 5
 63.8125 133 l 5
 63.103515625 137.280273438 61.708984375 141.423828125 60.546875 145.6328125 c 4
 58.9794921875 153.12109375 58.9140625 160.748046875 58.6640625 168.31640625 c 4
 58.1865234375 183.7109375 59.7802734375 199.094726562 61.501953125 214.41796875 c 4
 63.6845703125 234.869140625 66.0146484375 255.307617188 69.30078125 275.669921875 c 4
 72.5576171875 299.361328125 76.46875 322.989257812 80.744140625 346.580078125 c 4
 83.68359375 362.389648438 86.84375 378.172851562 90.1796875 393.93359375 c 5
 91.9599609375 393.440429688 93.7333984375 392.934570312 95.51953125 392.451171875 c 4
 118.05859375 386.44921875 141.880859375 383.924804688 165.66796875 381.962890625 c 4
 212.057617188 378.38671875 258.565429688 381.290039062 304.740234375 384.826171875 c 4
 341.885742188 387.900390625 379.01171875 391.169921875 415.8203125 395.88671875 c 5
 446.09765625 412.107421875 l 5
 408.952148438 406.853515625 371.416015625 403.213867188 333.794921875 400.134765625 c 4
 288.37109375 396.647460938 242.607421875 393.754882812 197.005859375 397.697265625 c 4
 174.020507812 399.772460938 151.0625 402.486328125 129.400390625 408.56640625 c 4
 120.767578125 411.03125 112.09375 413.545898438 103.720703125 416.400390625 c 5
 94.048828125 411.806640625 l 6
 94.611328125 414.353515625 95.1591796875 416.90234375 95.732421875 419.447265625 c 4
 100.399414062 439.818359375 107.237304688 459.830078125 113.228515625 479.9765625 c 4
 118.728515625 500.071289062 124.7265625 520.076171875 130.76171875 540.076171875 c 4
 136.640625 557.817382812 143.07421875 575.448242188 150.955078125 592.7109375 c 4
 157.170898438 607.203125 165.514648438 621.033203125 173.337890625 635.013671875 c 4
 180.2421875 645.532226562 186.431640625 656.352539062 193.7578125 666.697265625 c 4
 200.090820312 675.639648438 206.875 684.361328125 213.9453125 692.955078125 c 4
 220.051757812 700.744140625 226.059570312 708.56640625 232.341796875 716.26953125 c 4
 236.04296875 721.174804688 239.940429688 726.013671875 244.5234375 730.44921875 c 4
 247.713867188 735.249023438 251.807617188 739.577148438 256.248046875 743.69921875 c 4
 259.888671875 747.646484375 263.447265625 751.708007812 266.384765625 756.009765625 c 4
 267.141601562 757.514648438 269.549804688 758.249023438 270.5703125 759.55078125 c 4
 271.6640625 760.947265625 270.092773438 760.071289062 271.6953125 760.779296875 c 4
 273.35546875 763.282226562 276.142578125 765.157226562 278.087890625 767.51953125 c 4
 279.33203125 768.37890625 280.290039062 769.45703125 281.240234375 770.5390625 c 4
 290.759765625 766.658203125 299.15234375 761.040039062 307.28125 755.6484375 c 4
 328.380859375 739.842773438 347.49609375 722.311523438 364.39453125 703.66015625 c 4
 368.7421875 698.861328125 372.782226562 693.896484375 376.9765625 689.013671875 c 4
 402.259765625 658.17578125 419.512695312 623.986328125 430.57421875 588.453125 c 4
 433.2734375 579.782226562 435.278320312 570.987304688 437.630859375 562.25390625 c 4
 449.651367188 511.017578125 453.361328125 458.823242188 452.5078125 406.798828125 c 4
 452.313476562 395 451.669921875 383.206054688 451.251953125 371.41015625 c 4
 448.236328125 322.073242188 442.606445312 272.844726562 434.20703125 223.890625 c 4
 428.85546875 192.705078125 426.537109375 182.948242188 420.107421875 152.134765625 c 4
 411.034179688 110.497070312 400.182617188 69.115234375 389.517578125 27.71484375 c 5
 416.19140625 37.853515625 l 5
 426.125976562 79.0634765625 436.299804688 120.24609375 444.90625 161.642578125 c 4
 459.390625 234.42578125 471.721679688 307.520507812 475.927734375 381.1796875 c 4
 476.438476562 393.036132812 477.163085938 404.888671875 477.4609375 416.75 c 4
 478.775390625 469.147460938 475.762695312 521.721679688 464.287109375 573.42578125 c 4
 462.033203125 582.255859375 460.1015625 591.140625 457.525390625 599.916015625 c 4
 446.959960938 635.896484375 430.45703125 670.65234375 405.451171875 702.06640625 c 4
 401.326171875 707.03125 397.3515625 712.07421875 393.076171875 716.9609375 c 4
 376.499023438 735.907226562 357.858398438 753.825195312 337.517578125 770.359375 c 4
 326.872070312 778.014648438 315.918945312 785.950195312 302.45703125 790.458984375 c 5
274.310546875 772.958984375 m 6
 275.217773438 772.693359375 276.11328125 772.411132812 277 772.111328125 c 5
 244.115234375 756.869140625 251.555664062 760.607421875 261.0703125 765.013671875 c 4
 261.477539062 765.166992188 261.840820312 765.301757812 262.01171875 765.58203125 c 4
 261.983398438 765.620117188 261.955078125 765.659179688 261.927734375 765.697265625 c 4
 261.849609375 765.784179688 261.772460938 765.870117188 261.6953125 765.95703125 c 6
 274.310546875 772.958984375 l 6
EndSplineSet
EndChar

StartChar: Capital
Encoding: 66 66 2
Width: 478
GlyphClass: 2
Flags: HMW
HStem: 229.619 15.3926 308.482 16.0508 954.605 15.709
VStem: 220.533 22.416 447.713 23.5488
LayerCount: 2
Fore
SplineSet
316.15234375 769.06640625 m 0
 312.151367188 769.010742188 308.12890625 768.755859375 304.09765625 768.314453125 c 0
 292.470703125 765.96484375 281.111328125 764.375976562 270.216796875 759.25 c 0
 238.8671875 744.5 209.008789062 726.7890625 183.111328125 703.697265625 c 0
 153.845703125 675.974609375 125.833007812 646.8046875 101.443359375 614.630859375 c 0
 87.248046875 595.63671875 72.8642578125 576.005859375 66.4921875 552.80078125 c 0
 64.869140625 543.489257812 64.1298828125 537.119140625 72.033203125 530.658203125 c 1
 96.9453125 546.77734375 l 1
 89.5751953125 551.142578125 90.8056640625 557.9609375 92.1640625 565.3125 c 0
 98.169921875 587.7109375 112.026367188 606.674804688 125.595703125 625.052734375 c 0
 145.380859375 651.18359375 167.287109375 675.770507812 190.748046875 698.662109375 c 0
 195.815429688 703.606445312 201.075195312 708.3515625 206.23828125 713.197265625 c 0
 219.462890625 724.028320312 224.411132812 728.693359375 238.666015625 737.98046875 c 0
 244.08984375 741.513671875 249.484375 745.189453125 255.365234375 747.89453125 c 0
 257.475585938 748.865234375 247.845703125 743.03125 250.15625 743.267578125 c 0
 256.034179688 743.868164062 261.21484375 747.475585938 266.90234375 749.07421875 c 0
 272.311523438 750.594726562 277.889648438 751.427734375 283.3828125 752.60546875 c 0
 304.366210938 755.227539062 325.172851562 752.6171875 344.138671875 742.9375 c 0
 356.452148438 736.65234375 358.28125 734.064453125 368.75390625 725.197265625 c 0
 387.470703125 706.47265625 399.856445312 682.926757812 406.015625 657.24609375 c 0
 407.256835938 652.069335938 407.983398438 646.783203125 408.966796875 641.55078125 c 0
 412.619140625 612.82421875 409.114257812 583.973632812 401.556640625 556.15234375 c 0
 399.8671875 549.932617188 397.801757812 543.821289062 395.923828125 537.65625 c 0
 387.118164062 511.141601562 375.512695312 485.65625 361.64453125 461.41796875 c 0
 352.513671875 445.458984375 349.501953125 441.356445312 339.49609375 426.078125 c 0
 328.4140625 410.892578125 317.491210938 395.112304688 304.7421875 381.107421875 c 0
 302.821289062 380.797851562 300.895507812 380.399414062 298.9609375 379.884765625 c 2
 275.759765625 361.548828125 l 2
 279.694335938 363.091796875 283.640625 364.053710938 287.6015625 364.607421875 c 1
 285.176757812 362.620117188 282.530273438 360.919921875 279.99609375 359.072265625 c 1
 281.919921875 360.212890625 283.599609375 361.1796875 285.236328125 362.12109375 c 2
 270.080078125 350.48828125 l 1
 285.586914062 353.946289062 276.078125 351.356445312 298.79296875 365.173828125 c 0
 305.384765625 364.986328125 312.024414062 364.0234375 318.7265625 362.9140625 c 0
 338.622070312 358.711914062 357.245117188 349.649414062 371.66796875 335.10546875 c 0
 374.645507812 332.103515625 377.208984375 328.71875 379.98046875 325.525390625 c 0
 390.637695312 310.984375 397.11328125 294.143554688 400.48828125 276.505859375 c 0
 402.561523438 265.666992188 402.823242188 258.6875 403.712890625 247.693359375 c 0
 404.416992188 221.744140625 401.650390625 195.5546875 394.693359375 170.5 c 0
 393.1875 165.075195312 391.290039062 159.766601562 389.587890625 154.400390625 c 0
 379.471679688 126.241210938 364.3828125 99.7265625 343.26953125 78.3046875 c 0
 339.037109375 74.0107421875 334.340820312 70.2001953125 329.876953125 66.1484375 c 0
 322.625 60.8505859375 308.352539062 49.564453125 299.587890625 46.580078125 c 0
 297.000976562 45.69921875 308.311523438 52.0400390625 305.58203125 52.171875 c 0
 299.818359375 52.451171875 294.641601562 48.447265625 289.033203125 47.08984375 c 0
 274.8515625 43.65625 269.834960938 43.9580078125 255.34375 43.01171875 c 0
 227.434570312 42.8525390625 200.428710938 50.1162109375 174.966796875 61.14453125 c 0
 169.8359375 63.3671875 164.83984375 65.8935546875 159.77734375 68.267578125 c 0
 134.90625 80.513671875 111.709960938 95.9296875 86.6953125 107.90234375 c 0
 82.3994140625 109.958984375 77.9755859375 111.735351562 73.615234375 113.65234375 c 0
 62.9169921875 117.875 51.87890625 121.485351562 40.345703125 122.439453125 c 0
 37.4296875 122.680664062 34.494140625 122.500976562 31.568359375 122.533203125 c 2
 9 106.076171875 l 2
 11.9375 106.211914062 14.8740234375 106.575195312 17.8125 106.482421875 c 0
 29.4296875 106.114257812 40.607421875 102.801757812 51.453125 98.875 c 0
 55.8623046875 97.0625 60.3447265625 95.41796875 64.681640625 93.4375 c 0
 89.98046875 81.88671875 113.237304688 66.3798828125 138.056640625 53.908203125 c 0
 143.139648438 51.4853515625 148.153320312 48.912109375 153.3046875 46.638671875 c 0
 178.961914062 35.31640625 206.215820312 27.7822265625 234.416015625 27.619140625 c 0
 249.127929688 28.37109375 254.079101562 27.9912109375 268.525390625 31.259765625 c 0
 291.538085938 36.4658203125 298.775390625 42.505859375 323.634765625 55.8125 c 0
 328.93359375 58.6484375 334.174804688 61.623046875 339.171875 64.962890625 c 0
 344.209960938 68.330078125 348.852539062 72.2529296875 353.693359375 75.8984375 c 0
 358.115234375 80.0341796875 362.768554688 83.9375 366.9609375 88.306640625 c 0
 387.962890625 110.19140625 402.9453125 137.079101562 413.10546875 165.4921875 c 0
 414.811523438 170.9296875 416.7109375 176.311523438 418.22265625 181.806640625 c 0
 425.205078125 207.182617188 428.081054688 233.66015625 427.26171875 259.93359375 c 0
 426.349609375 270.994140625 426.046875 278.258789062 423.970703125 289.17578125 c 0
 420.536132812 307.235351562 413.9140625 324.510742188 403.083984375 339.447265625 c 0
 400.262695312 342.75 397.65234375 346.244140625 394.62109375 349.35546875 c 0
 380.1015625 364.255859375 361.345703125 373.838867188 341.255859375 378.6640625 c 0
 334.118164062 380.109375 327.06640625 381.368164062 320.005859375 381.78125 c 1
 336.239257812 398.111328125 349.263671875 417.52734375 362.53515625 436.19140625 c 0
 366.244140625 441.947265625 370.06640625 447.631835938 373.662109375 453.458984375 c 0
 392.139648438 483.405273438 407.770507812 515.096679688 418.90625 548.521484375 c 0
 420.817382812 554.76171875 422.920898438 560.9453125 424.640625 567.240234375 c 0
 432.350585938 595.458007812 435.9140625 624.752929688 432.095703125 653.888671875 c 0
 431.069335938 659.1953125 430.299804688 664.55859375 429.017578125 669.80859375 c 0
 422.637695312 695.934570312 410.106445312 719.989257812 391.126953125 739.150390625 c 0
 380.559570312 748.26171875 378.544921875 751.052734375 366.107421875 757.583984375 c 0
 350.44140625 765.810546875 333.491210938 769.306640625 316.15234375 769.06640625 c 0
175.146484375 561.71484375 m 1
 149.181640625 547.4140625 l 1
 154.376953125 535.939453125 157.994140625 523.798828125 161.53515625 511.732421875 c 0
 167.729492188 489.727539062 171.61328125 467.176757812 175.34375 444.65234375 c 0
 180.666992188 410.657226562 182.349609375 376.286132812 183.572265625 341.947265625 c 0
 185.025390625 299.021484375 181.685546875 256.181640625 176.533203125 213.60546875 c 0
 173.016601562 187.3515625 167.419921875 161.458984375 161.537109375 135.65625 c 1
 184.62890625 146.79296875 l 1
 190.205078125 172.60546875 195.51953125 198.494140625 198.94921875 224.697265625 c 0
 203.897460938 267.436523438 207.123046875 310.393554688 206 353.458984375 c 0
 205.166992188 388.127929688 203.999023438 422.849609375 199.091796875 457.23046875 c 0
 195.595703125 479.997070312 191.91796875 502.78515625 186.03515625 525.08203125 c 0
 182.659179688 537.3671875 179.087890625 549.598632812 175.146484375 561.71484375 c 1
EndSplineSet
EndChar

StartChar: Capital
Encoding: 67 67 3
Width: 767
GlyphClass: 2
Flags: HMW
HStem: 909.291 19.5811 985.31 19.8428
LayerCount: 2
Fore
SplineSet
3 657.00390625 m 1
 19.431640625 675.8359375 43.0126953125 686.220703125 63.7666015625 698.208007812 c 0
 88.2470703125 708.416992188 114.822265625 709.571289062 140.809570312 710.872070312 c 0
 173.631835938 712.008789062 206.38671875 709.755859375 239.013671875 706.22265625 c 0
 267.063476562 702.71875 294.58984375 696.010742188 321.7421875 687.979492188 c 0
 347.348632812 679.873046875 373.0390625 672.228515625 399.2890625 666.794921875 c 0
 418.205078125 663.263671875 437.493164062 662 456.6640625 663.553710938 c 0
 469.072265625 664.559570312 474.556640625 665.8046875 486.864257812 667.943359375 c 0
 516.51171875 674.463867188 545.146484375 685.28515625 572.250976562 699.404296875 c 0
 575.734375 701.501953125 586.279296875 707.610351562 582.701171875 705.696289062 c 0
 576.20703125 702.22265625 570.236328125 697.630859375 563.495117188 694.721679688 c 0
 560.901367188 693.602539062 567.98046875 698.272460938 570.065429688 700.243164062 c 0
 575.587890625 705.463867188 577.509765625 708.891601562 579.888671875 716.0546875 c 0
 582.20703125 731.081054688 574.301757812 741.352539062 564.8203125 751.430664062 c 0
 551.66015625 762.711914062 535.586914062 768.569335938 518.581054688 768.365234375 c 0
 513.981445312 768.310546875 509.40625 767.661132812 504.819335938 767.309570312 c 0
 476.526367188 762.373046875 450.522460938 749.27734375 425.448242188 735.1875 c 0
 424.810546875 734.828125 424.393554688 734.135742188 423.798828125 733.703125 c 0
 414.765625 727.125976562 405.649414062 720.676757812 396.575195312 714.1640625 c 0
 357.995117188 683.517578125 323.737304688 646.926757812 297.743164062 603.873046875 c 0
 279.423828125 573.53125 277.700195312 565.650390625 264.211914062 532.639648438 c 0
 260.541015625 519.561523438 256.138671875 506.686523438 253.19921875 493.405273438 c 0
 240.614257812 436.537109375 240.920898438 376.499023438 250.975585938 319.233398438 c 0
 253.581054688 304.397460938 257.55859375 289.864257812 260.850585938 275.1796875 c 0
 265.569335938 260.981445312 269.548828125 246.487304688 275.005859375 232.583984375 c 0
 291.2734375 191.134765625 314.038085938 151.2578125 345.951171875 120.916992188 c 0
 376.619140625 91.7578125 385.6484375 91.1435546875 423.217773438 73.0341796875 c 0
 439.733398438 69.046875 455.965820312 63.4130859375 472.763671875 61.0732421875 c 0
 539.15625 51.82421875 607.098632812 63.8564453125 671.763671875 78.873046875 c 0
 699.389648438 85.2890625 726.627929688 93.4267578125 754.060546875 100.704101562 c 1
 742.204101562 91.1591796875 l 1
 681.594726562 74.5205078125 642.880859375 61.9853515625 581.565429688 52.2041015625 c 0
 539.395507812 45.4765625 496.40234375 41.85546875 453.830078125 47.2724609375 c 0
 436.638671875 49.4599609375 420.002929688 55.0908203125 403.088867188 59 c 0
 364.762695312 77.251953125 355.8046875 77.66015625 324.607421875 107.307617188 c 0
 292.44921875 137.868164062 269.514648438 178.118164062 253.123046875 219.869140625 c 0
 247.630859375 233.85546875 243.619140625 248.43359375 238.8671875 262.716796875 c 0
 235.51953125 277.466796875 231.49609375 292.064453125 228.825195312 306.965820312 c 0
 218.55078125 364.287109375 217.651367188 424.59765625 229.7421875 481.705078125 c 0
 232.568359375 495.052734375 236.884765625 508.00390625 240.456054688 521.153320312 c 0
 253.75 554.404296875 255.374023438 562.223632812 273.551757812 592.823242188 c 0
 299.135742188 635.88671875 332.932617188 672.673828125 371.040039062 703.611328125 c 0
 407.423828125 730.268554688 399.40234375 725.470703125 447.916015625 754.116210938 c 0
 468.533203125 766.290039062 490.755859375 777.05078125 513.661132812 783.541992188 c 0
 519.169921875 785.102539062 524.83984375 785.94921875 530.4296875 787.15234375 c 0
 535.219726562 787.469726562 540.000976562 788.119140625 544.80078125 788.104492188 c 0
 562.6171875 788.052734375 579.44921875 781.504882812 593.18359375 769.688476562 c 0
 603.522460938 758.767578125 611.932617188 747.51953125 610.454101562 731.244140625 c 0
 609.048828125 725.748046875 609.064453125 723.93359375 605.763671875 719.092773438 c 0
 603.344726562 715.543945312 597.259765625 709.440429688 593.959960938 707.234375 c 0
 570.928710938 691.83203125 565.328125 688.803710938 547.240234375 678.426757812 c 0
 519.953125 664.887695312 491.345703125 654.204101562 461.688476562 648.057617188 c 0
 448.859375 645.934570312 444.088867188 644.834960938 431.168945312 643.919921875 c 0
 411.75 642.545898438 392.259765625 643.971679688 373.124023438 647.624023438 c 0
 346.821289062 653.209960938 321.016601562 660.782226562 295.337890625 668.947265625 c 0
 268.43359375 676.844726562 241.180664062 683.599609375 213.40234375 687.083984375 c 0
 180.875 690.71484375 148.188476562 692.78125 115.46484375 691.291015625 c 0
 89.2177734375 689.620117188 62.3984375 687.935546875 37.99609375 676.633789062 c 1
 44.6494140625 680.930664062 51.357421875 685.137695312 57.9580078125 689.525390625 c 0
 60.2314453125 691.037109375 53.251953125 686.779296875 50.9794921875 685.265625 c 0
 45.0966796875 681.346679688 39.7802734375 676.56640625 34.91796875 671.341796875 c 2
 3 657.00390625 l 1
EndSplineSet
EndChar

StartChar: Capital
Encoding: 68 68 4
Width: 763
GlyphClass: 2
Flags: HMW
HStem: 255.866 13.3916 951.552 17.21
VStem: 104.932 26.5645<822.042 837.098> 240.246 21.5859
LayerCount: 2
Fore
SplineSet
277.220703125 783 m 0
 273.255859375 783.01171875 269.287109375 782.93359375 265.314453125 782.76171875 c 0
 258.42578125 782.147460938 251.51171875 781.853515625 244.650390625 780.919921875 c 0
 213.8046875 776.723632812 183.97265625 765.5625 156.255859375 749.583007812 c 0
 125.506835938 729.151367188 94.1787109375 711.243164062 73.1171875 677.193359375 c 0
 71.4560546875 674.236328125 69.6650390625 671.37109375 68.1328125 668.323242188 c 0
 63.1201171875 658.35546875 59.9248046875 647.287109375 57.931640625 636.041992188 c 1
 84.49609375 651.09765625 l 1
 85.708984375 661.827148438 88.9580078125 672.348632812 93.763671875 681.649414062 c 0
 95.265625 684.557617188 97.025390625 687.27734375 98.65625 690.092773438 c 0
 107.803710938 704.784179688 119.586914062 716.973632812 132.375 727.354492188 c 0
 135.034179688 729.512695312 137.89453125 731.342773438 140.638671875 733.356445312 c 0
 166.969726562 748.422851562 195.225585938 758.997070312 224.43359375 763.3984375 c 0
 231.297851562 764.432617188 238.22265625 764.833984375 245.1171875 765.551757812 c 0
 287.76171875 768.081054688 330.217773438 759.940429688 371.40234375 747.71484375 c 0
 381.323242188 744.76953125 391.124023438 741.310546875 400.984375 738.108398438 c 0
 455.670898438 718.079101562 508.548828125 690.936523438 556.736328125 654.8359375 c 0
 566.978515625 647.163085938 576.765625 638.70703125 586.779296875 630.642578125 c 0
 596.200195312 621.827148438 605.9375 613.444335938 615.041015625 604.196289062 c 0
 648.387695312 570.317382812 678.771484375 529.814453125 696.060546875 482.05078125 c 0
 700.045898438 471.040039062 702.514648438 459.37890625 705.7421875 448.043945312 c 0
 707.306640625 436.456054688 709.692382812 424.975585938 710.4375 413.280273438 c 0
 712.736328125 377.217773438 706.963867188 341.314453125 694.591796875 308.16015625 c 0
 683.225585938 277.703125 676.446289062 269.583984375 659.919921875 242.419921875 c 0
 652.014648438 232.3203125 644.586914062 221.696289062 636.205078125 212.122070312 c 0
 627.560546875 202.248046875 618.423828125 192.921875 608.91796875 184.163085938 c 0
 596.131835938 172.380859375 578.424804688 157.477539062 562.6328125 148.59765625 c 0
 525.634765625 127.793945312 527.046875 129.874023438 487.84375 114.095703125 c 0
 418.868164062 90.525390625 346.778320312 81.6689453125 274.970703125 83.2578125 c 0
 260.709960938 83.5732421875 246.477539062 84.8134765625 232.23046875 85.591796875 c 0
 181.190429688 90.228515625 130.14453125 99.892578125 81.767578125 119.765625 c 0
 54.4775390625 130.9765625 50.142578125 134.787109375 25.185546875 149.782226562 c 1
 6 135.262695312 l 1
 31.400390625 120.624023438 36.2744140625 116.665039062 63.869140625 105.696289062 c 0
 112.909179688 86.201171875 164.5 76.7744140625 216.068359375 72.193359375 c 0
 230.379882812 71.4169921875 244.678710938 70.19140625 259.00390625 69.8662109375 c 0
 330.7109375 68.23828125 402.7421875 76.568359375 471.75 99.6552734375 c 0
 484.591796875 104.715820312 497.645507812 109.118164062 510.27734375 114.838867188 c 0
 562.60546875 138.537109375 616.107421875 175.734375 656.13671875 221.780273438 c 0
 664.583984375 231.497070312 672.072265625 242.26171875 680.0390625 252.502929688 c 0
 696.61328125 279.924804688 703.603515625 288.424804688 714.96484375 319.166992188 c 0
 727.35546875 352.6953125 733.083984375 389.1640625 730.568359375 425.567382812 c 0
 729.752929688 437.375 727.248046875 448.947265625 725.587890625 460.63671875 c 0
 722.255859375 472.05859375 719.694335938 483.818359375 715.591796875 494.90234375 c 0
 697.84375 542.857421875 666.823242188 583.283203125 633.18359375 617.306640625 c 0
 624.022460938 626.572265625 614.260742188 635.015625 604.798828125 643.870117188 c 0
 594.78125 651.99609375 584.983398438 660.49609375 574.744140625 668.24609375 c 0
 526.766601562 704.557617188 474.23046875 732.28125 419.787109375 752.940429688 c 0
 410.0078125 756.256835938 400.290039062 759.818359375 390.451171875 762.889648438 c 0
 353.5234375 774.416015625 315.551757812 782.881835938 277.220703125 783 c 0
144.5625 666.869140625 m 1
 118.8203125 649.979492188 l 1
 128.284179688 626.538085938 134.6015625 601.58203125 141.61328125 577.076171875 c 0
 152.809570312 537.518554688 163.502929688 497.731445312 172.009765625 457.274414062 c 0
 173.932617188 448.129882812 175.616210938 438.918945312 177.419921875 429.743164062 c 0
 186.189453125 382.39453125 192.381835938 334.176757812 193.31640625 285.704101562 c 0
 193.498046875 276.293945312 193.26953125 266.876953125 193.24609375 257.463867188 c 0
 192.401367188 230.708007812 190.09375 203.956054688 185.4921875 177.689453125 c 0
 184.122070312 169.866210938 182.282226562 162.16015625 180.677734375 154.396484375 c 1
 203.314453125 166.958007812 l 1
 204.784179688 174.713867188 206.465820312 182.422851562 207.72265625 190.228515625 c 0
 211.966796875 216.5859375 214.15625 243.358398438 214.83203125 270.139648438 c 0
 214.803710938 279.573242188 214.97265625 289.01171875 214.748046875 298.44140625 c 0
 213.588867188 347.064453125 207.305664062 395.397460938 198.755859375 442.958984375 c 0
 196.9921875 452.19140625 195.3359375 461.451171875 193.46484375 470.655273438 c 0
 185.190429688 511.352539062 174.818359375 551.412109375 164.2265625 591.37109375 c 0
 157.659179688 616.532226562 151.63671875 641.88671875 144.5625 666.869140625 c 1
EndSplineSet
EndChar

StartChar: Capital
Encoding: 69 69 5
Width: 466
GlyphClass: 2
Flags: HMW
HStem: 216.631 13.9414 915.902 16.0898
VStem: 57.1113 22.2617
LayerCount: 2
Fore
SplineSet
361.494140625 778.908203125 m 0
 353.21484375 778.938476562 344.923828125 778.58203125 336.65625 777.9921875 c 0
 315.654296875 775.543945312 294.696289062 771.421875 274.677734375 764.49609375 c 0
 270.954101562 763.208007812 267.310546875 761.698242188 263.626953125 760.298828125 c 0
 242.611328125 751.173828125 221.404296875 740.967773438 203.751953125 726.16015625 c 0
 196.922851562 720.431640625 195.315429688 718.314453125 189.19921875 711.78125 c 0
 172.924804688 693.551757812 159.708984375 672.909179688 147.396484375 651.880859375 c 0
 136.173828125 631.732421875 126.545898438 610.379882812 122.935546875 587.423828125 c 0
 122.203125 582.763671875 121.958007812 578.0390625 121.46875 573.34765625 c 0
 121.067382812 554.950195312 124.705078125 536.775390625 134.255859375 520.849609375 c 0
 140.416992188 510.575195312 143.586914062 508.26953125 151.85546875 499.693359375 c 0
 170.420898438 483.44140625 193.145507812 473.598632812 217.50390625 469.99609375 c 0
 222.838867188 469.20703125 228.241210938 468.977539062 233.609375 468.466796875 c 0
 246.099609375 468.091796875 258.55078125 468.904296875 270.849609375 470.763671875 c 1
 238.97265625 452.809570312 208.108398438 433.051757812 178.724609375 411.244140625 c 0
 172.110351562 406.3359375 165.630859375 401.248046875 159.083984375 396.25 c 0
 125.112304688 369.234375 91.2216796875 341.225585938 63.734375 307.37109375 c 0
 58.65234375 301.111328125 54.111328125 294.430664062 49.298828125 287.9609375 c 0
 45.37890625 281.314453125 40.978515625 274.927734375 37.537109375 268.021484375 c 0
 27.640625 248.163085938 22.1337890625 226.262695312 23.111328125 203.982421875 c 0
 23.9599609375 184.633789062 26.951171875 179.53515625 32.81640625 161.29296875 c 0
 36.2275390625 154.762695312 39.0771484375 147.90625 43.048828125 141.701171875 c 0
 55.5458984375 122.178710938 73.1064453125 106.66015625 92.880859375 94.82421875 c 0
 110.799804688 84.0986328125 118.48046875 82.0947265625 137.947265625 74.56640625 c 0
 171.338867188 63.6611328125 206.326171875 59.080078125 241.365234375 62.630859375 c 0
 268.276367188 65.3583984375 274.923828125 68.3330078125 301.451171875 75.451171875 c 0
 334.282226562 87.845703125 336.077148438 87.5693359375 368.259765625 103.765625 c 0
 380.043945312 109.696289062 391.497070312 116.263671875 403.115234375 122.51171875 c 2
 419.275390625 135.517578125 l 2
 407.801757812 129.334960938 396.4921875 122.834960938 384.853515625 116.96875 c 0
 353.413085938 101.12109375 351.399414062 101.294921875 319.3359375 89.177734375 c 0
 293.122070312 82.1298828125 286.962890625 79.302734375 260.373046875 76.572265625 c 0
 225.719726562 73.013671875 191.063476562 77.3203125 157.9921875 88.029296875 c 0
 138.737304688 95.4423828125 131.206054688 97.375 113.509765625 107.986328125 c 0
 94.130859375 119.606445312 76.8583984375 134.880859375 64.623046875 154.033203125 c 0
 60.7333984375 160.122070312 57.947265625 166.849609375 54.609375 173.2578125 c 0
 48.9130859375 191.302734375 46.0673828125 196.06640625 45.373046875 215.1796875 c 0
 44.2822265625 245.2109375 55.3193359375 272.954101562 71.65625 297.603515625 c 0
 76.4091796875 303.974609375 80.8935546875 310.556640625 85.9140625 316.71875 c 0
 113.44140625 350.501953125 147.409179688 378.3828125 181.509765625 405.181640625 c 0
 200.098632812 419.157226562 218.788085938 432.709960938 238.23046875 445.48046875 c 0
 243.515625 448.952148438 248.806640625 452.415039062 254.166015625 455.76953125 c 0
 257.776367188 458.030273438 261.509765625 460.091796875 265.1484375 462.306640625 c 0
 273.060546875 466.561523438 281.065429688 470.620117188 289.224609375 474.341796875 c 0
 294.8203125 475.673828125 300.374023438 477.208007812 305.869140625 478.94921875 c 0
 317.533203125 482.64453125 324.822265625 485.75390625 334.3046875 489.875 c 0
 335.90234375 490.229492188 337.50390625 490.573242188 339.11328125 490.892578125 c 2
 362.8125 508.62890625 l 2
 362.297851562 508.526367188 361.78515625 508.416015625 361.271484375 508.310546875 c 2
 362.328125 509.146484375 l 2
 361.372070312 508.7265625 360.61328125 508.38671875 359.708984375 507.986328125 c 0
 351.51171875 506.237304688 343.426757812 504.048828125 335.48046875 501.373046875 c 0
 324.948242188 497.778320312 314.750976562 493.427734375 304.75390625 488.642578125 c 0
 288.431640625 485.040039062 271.7421875 483.299804688 254.96875 483.689453125 c 0
 249.694335938 484.151367188 244.387695312 484.3359375 239.14453125 485.07421875 c 0
 215.321289062 488.428710938 192.963867188 497.903320312 174.708984375 513.64453125 c 0
 166.737304688 521.8671875 163.5078125 524.241210938 157.595703125 534.123046875 c 0
 148.329101562 549.611328125 144.8515625 567.3359375 145.38671875 585.20703125 c 0
 145.916015625 589.814453125 146.204101562 594.458007812 146.974609375 599.03125 c 0
 150.806640625 621.772460938 160.692382812 642.845703125 171.931640625 662.771484375 c 0
 184.514648438 683.756835938 197.955078125 704.375 214.638671875 722.384765625 c 0
 220.94140625 728.826171875 222.467773438 730.780273438 229.470703125 736.390625 c 0
 231.317382812 737.870117188 236.209960938 740.78515625 237.61328125 741.88671875 c 0
 241.8203125 744.037109375 244.639648438 745.319335938 242.220703125 743.498046875 c 1
 245.899414062 744.962890625 249.533203125 746.544921875 253.255859375 747.892578125 c 0
 273.098632812 755.076171875 293.95703125 759.30078125 314.853515625 761.90234375 c 0
 336.545898438 763.575195312 358.185546875 763.525390625 379.572265625 758.951171875 c 0
 391.737304688 755.828125 404.049804688 751.999023438 413.4765625 743.283203125 c 0
 418.54296875 738.532226562 423.05078125 733.345703125 426.958984375 727.59375 c 1
 452.400390625 742.798828125 l 1
 447.926757812 748.319335938 443.348632812 753.649414062 438.15625 758.515625 c 0
 428.213867188 767.580078125 415.393554688 771.57421875 402.638671875 774.83984375 c 0
 389.059570312 777.735351562 375.29296875 778.858398438 361.494140625 778.908203125 c 0
EndSplineSet
EndChar

StartChar: Capital
Encoding: 70 70 6
Width: 665
GlyphClass: 2
Flags: HMW
HStem: 606.867 16.0723 892.535 15.1289 915.557 15.7656 930.035 11.2656
VStem: 359.855 21.4141
LayerCount: 2
Fore
SplineSet
644.7265625 776.30078125 m 2xd8
 601.419921875 765.701171875 l 2
 594.135742188 761.368164062 590.264648438 758.849609375 582.126953125 754.931640625 c 0
 578.189453125 753.036132812 565.108398438 748.592773438 569.9375 749.529296875 c 0
 570.983398438 749.732421875 572.006835938 749.967773438 573.017578125 750.21875 c 1
 564.997070312 747.8046875 558.97265625 746.17578125 563.24609375 748.0625 c 1
 557.104492188 746.844726562 551.041015625 745.48046875 544.822265625 744.408203125 c 0
 511.68359375 738.694335938 477.124023438 736.831054688 442.779296875 738.943359375 c 0
 426.05859375 740.219726562 418.916992188 740.543945312 402.5078125 742.6640625 c 0
 377.008789062 745.958007812 352.208984375 750.935546875 327.1953125 755.26171875 c 0
 290.709960938 761.296875 253.512695312 766.173828125 215.408203125 766.322265625 c 0
 179.302734375 766.16796875 144.83203125 764.17578125 110.490234375 757.125 c 0
 76.939453125 750.01953125 45.201171875 740.38671875 16 728.1875 c 1
 57.8671875 738.08984375 l 2
 52.5888671875 736.204101562 46.2666015625 733.9296875 38.2421875 731.017578125 c 0
 35.0595703125 729.862304688 44.8955078125 733.028320312 48.27734375 733.966796875 c 0
 60.04296875 737.232421875 61.291015625 737.360351562 73.869140625 740.234375 c 0
 108.217773438 747.759765625 142.3359375 750.087890625 178.701171875 750.556640625 c 0xe8
 216.504882812 750.654296875 253.426757812 745.923828125 289.68359375 740.095703125 c 0
 293.6171875 739.434570312 297.54296875 738.752929688 301.466796875 738.064453125 c 2
 297.111328125 734.5703125 l 1
 304.909179688 718.1484375 309.431640625 699.200195312 313.916015625 680.685546875 c 0
 321.397460938 648.915039062 326.336914062 616.0546875 329.208984375 582.875 c 0
 329.9375 574.4609375 330.387695312 566.00390625 330.9765625 557.568359375 c 0
 332.643554688 522.45703125 332.26953125 487.173828125 330.353515625 452.0625 c 1
 315.217773438 455.4921875 299.866210938 457.8359375 284.26171875 457.939453125 c 0
 262.567382812 457.78125 241.85546875 455.750976562 221.220703125 448.5625 c 0
 201.061523438 441.318359375 181.993164062 431.498046875 164.447265625 419.060546875 c 1
 189.595703125 429.154296875 l 2
 186.42578125 427.232421875 182.62890625 424.9140625 177.810546875 421.947265625 c 0
 175.8984375 420.76953125 181.807617188 423.99609375 183.83984375 424.953125 c 0
 190.909179688 428.283203125 191.659179688 428.412109375 199.216796875 431.341796875 c 0
 219.85546875 439.014648438 240.357421875 441.389648438 262.20703125 441.8671875 c 0
 284.921875 441.966796875 307.10546875 437.142578125 328.890625 431.201171875 c 0
 328.939453125 431.1875 328.98828125 431.171875 329.037109375 431.158203125 c 0
 328.346679688 421.520507812 327.545898438 411.90234375 326.646484375 402.30859375 c 0
 325.55078125 390.622070312 324.119140625 378.999023438 322.85546875 367.345703125 c 0
 315.274414062 308.661132812 304.994140625 250.50390625 291.220703125 194.0078125 c 0
 288.748046875 183.866210938 286.001953125 173.858398438 283.392578125 163.783203125 c 0
 276.833984375 140.4375 270.049804688 116.930664062 260.70703125 95.392578125 c 0
 258.643554688 90.634765625 256.403320312 85.9169921875 253.880859375 81.53125 c 0
 253.740234375 81.5234375 253.603515625 81.5107421875 253.4609375 81.505859375 c 0
 249.04296875 81.3583984375 246.145507812 82.57421875 241.857421875 83.828125 c 2
 218.486328125 61.32421875 l 1
 240.620117188 53.5576171875 241.646484375 59.9140625 267.013671875 80.46484375 c 0
 268.934570312 82.5849609375 271.040039062 84.4150390625 272.775390625 86.82421875 c 0
 277.676757812 93.626953125 281.461914062 102.083984375 284.744140625 110.45703125 c 0
 293.204101562 132.038085938 299.3828125 155.21484375 305.537109375 178.181640625 c 0
 308.01953125 188.215820312 310.62109375 198.1953125 312.982421875 208.28515625 c 0
 326.271484375 265.06640625 336.639648438 323.208007812 344.26953125 381.95703125 c 0
 345.567382812 393.682617188 347.025390625 405.37890625 348.1640625 417.13671875 c 0
 348.42578125 419.837890625 348.676757812 422.541015625 348.923828125 425.24609375 c 1
 357.321289062 422.734375 365.743164062 420.307617188 374.294921875 418.39453125 c 0
 384.760742188 416.052734375 388.099609375 415.84375 398.779296875 414.41015625 c 0
 419.53125 412.080078125 440.462890625 413.614257812 460.611328125 419.119140625 c 0
 464.358398438 420.142578125 468.022460938 421.451171875 471.728515625 422.6171875 c 0
 475.116210938 423.997070312 478.575195312 425.209960938 481.890625 426.755859375 c 0
 485.046875 428.227539062 488.11328125 429.895507812 491.1171875 431.658203125 c 0
 504.500976562 439.51171875 518.537109375 446.5703125 530.44921875 456.626953125 c 0
 534.94140625 460.419921875 538.158203125 463.927734375 542.220703125 468.11328125 c 2
 516.19921875 457.306640625 l 2
 511.822265625 452.888671875 509.497070312 450.3203125 504.607421875 446.326171875 c 0
 502.2421875 444.393554688 494.381835938 439.86328125 497.283203125 440.818359375 c 0
 497.915039062 441.026367188 498.532226562 441.268554688 499.142578125 441.525390625 c 1
 494.319335938 439.0625 490.692382812 437.397460938 493.26171875 439.322265625 c 1
 489.571289062 438.081054688 485.9296875 436.692382812 482.193359375 435.599609375 c 0
 462.282226562 429.7734375 441.515625 427.873046875 420.87890625 430.02734375 c 0
 410.83203125 431.328125 406.541015625 431.659179688 396.681640625 433.8203125 c 0
 381.360351562 437.178710938 366.458984375 442.252929688 351.4296875 446.6640625 c 0
 351.200195312 446.728515625 350.967773438 446.787109375 350.73828125 446.8515625 c 0
 353.952148438 489.055664062 355.23828125 531.606445312 353.615234375 573.966796875 c 0
 353.107421875 582.525390625 352.73828125 591.102539062 352.091796875 599.642578125 c 0
 349.543945312 633.275390625 344.818359375 666.58203125 337.896484375 699 c 0
 335.396484375 710.454101562 332.791015625 721.91796875 329.66796875 733.08984375 c 1
 341.446289062 731.048828125 353.271484375 729.114257812 365.25 727.53515625 c 0
 382.668945312 725.23828125 388.225585938 725.033203125 406 723.626953125 c 0
 440.536132812 721.341796875 475.37109375 722.846679688 508.904296875 728.24609375 c 0
 515.140625 729.25 521.239257812 730.532226562 527.40625 731.67578125 c 0
 533.044921875 733.028320312 538.802734375 734.219726562 544.3203125 735.736328125 c 0
 549.573242188 737.1796875 554.676757812 738.81640625 559.67578125 740.544921875 c 0
 581.950195312 748.248046875 605.309570312 755.171875 625.134765625 765.03515625 c 0
 632.611328125 768.754882812 637.96484375 772.1953125 644.7265625 776.30078125 c 2xd8
596.791015625 757.849609375 m 0
 596.736328125 757.708007812 589.734375 755.4140625 582.0625 753.00390625 c 1
 586.450195312 754.546875 590.756835938 756.206054688 595.34765625 757.49609375 c 0
 596.359375 757.780273438 596.805664062 757.885742188 596.791015625 757.849609375 c 0
513.41796875 449.302734375 m 0
 513.384765625 449.159179688 509.202148438 446.833007812 504.609375 444.384765625 c 1
 507.231445312 445.951171875 509.806640625 447.6328125 512.55078125 448.94140625 c 0
 513.159179688 449.231445312 513.426757812 449.33984375 513.41796875 449.302734375 c 0
246.576171875 71.123046875 m 1
 244.793945312 69.236328125 242.765625 67.806640625 240.88671875 66.099609375 c 1
 242.981445312 67.9814453125 244.8359375 69.6103515625 246.576171875 71.123046875 c 1
EndSplineSet
EndChar

StartChar: Capital
Encoding: 71 71 7
Width: 452
GlyphClass: 2
Flags: HMW
HStem: 42.6074 12.2871 501.4 35.1895 967.582 16.0254
VStem: 75.5645 19.6836
LayerCount: 2
Fore
SplineSet
357.6171875 737.607421875 m 0
 333.840820312 737.653320312 310.547851562 731.997070312 288.462890625 723.45703125 c 0
 282.852539062 721.287109375 277.379882812 718.780273438 271.837890625 716.44140625 c 0
 231.263671875 697.180664062 192.106445312 674.149414062 157.8125 644.96875 c 0
 151.106445312 639.262695312 144.76171875 633.141601562 138.236328125 627.228515625 c 0
 103.333984375 593.077148438 72.599609375 554.151367188 51.16015625 510.0625 c 0
 46.7587890625 501.010742188 43.2080078125 491.5703125 39.232421875 482.32421875 c 0
 24.6513671875 442.399414062 17.0888671875 400.389648438 16.421875 357.90625 c 0
 15.95703125 328.262695312 17.5419921875 321.408203125 20.564453125 291.9296875 c 0
 22.634765625 281.025390625 24.2255859375 270.01953125 26.775390625 259.216796875 c 0
 36.337890625 218.69921875 52.01953125 177.125 80.953125 146.232421875 c 0
 87.666015625 139.065429688 95.6904296875 133.25 103.05859375 126.759765625 c 0
 126.470703125 114.088867188 131.543945312 108.71484375 158.78515625 104.8671875 c 0
 196.705078125 99.5107421875 235.802734375 108.452148438 271.58984375 120.19921875 c 0
 285.5859375 124.793945312 299.150390625 130.603515625 312.91015625 135.8671875 c 1
 310.57421875 109.21484375 308.805664062 82.533203125 306.12109375 55.8984375 c 0
 303.053710938 26.25 297.026367188 -3.1884765625 288.255859375 -32.107421875 c 0
 286.546875 -37.7431640625 284.603515625 -43.3330078125 282.77734375 -48.9453125 c 0
 273.868164062 -74.822265625 263.358398438 -100.469726562 248.50390625 -124.623046875 c 0
 245.888671875 -128.875976562 242.958007812 -133.001953125 240.185546875 -137.19140625 c 0
 229.33203125 -153.258789062 216.243164062 -166.649414062 197.970703125 -177.80859375 c 0
 195.903320312 -179.071289062 193.729492188 -180.216796875 191.546875 -181.353515625 c 0
 169.20703125 -189.7421875 144.688476562 -193.166992188 120.044921875 -191.10546875 c 0
 114.673828125 -190.65625 109.380859375 -189.739257812 104.048828125 -189.0546875 c 0
 84.376953125 -185.247070312 64.859375 -179.620117188 48.857421875 -169.462890625 c 0
 39.6953125 -163.646484375 39.1103515625 -162.151367188 32.216796875 -154.95703125 c 0
 30.6220703125 -152.219726562 28.619140625 -149.611328125 27.431640625 -146.74609375 c 0
 23.5185546875 -137.303710938 24.72265625 -127.107421875 29.4296875 -117.978515625 c 0
 34.6455078125 -107.864257812 39.4716796875 -104.237304688 48.015625 -95.4375 c 0
 72.8564453125 -74.1123046875 103.708007812 -57.9638671875 135.255859375 -43.58984375 c 0
 138.708007812 -42.0166015625 142.422851562 -40.837890625 145.9921875 -39.439453125 c 0
 156.200195312 -35.439453125 166.387695312 -31.408203125 176.5859375 -27.392578125 c 0
 186.798828125 -23.7568359375 197.01171875 -20.1220703125 207.224609375 -16.486328125 c 2
 224.53125 -5.583984375 l 2
 214.271484375 -9.220703125 204.009765625 -12.859375 193.75 -16.49609375 c 0
 154.745117188 -31.7451171875 159.526367188 -29.37109375 114.375 -50.001953125 c 0
 88.62890625 -61.7666015625 63.11328125 -74.728515625 40.8828125 -90.486328125 c 0
 35.1376953125 -94.5595703125 29.9833984375 -99.1298828125 24.533203125 -103.451171875 c 0
 15.5205078125 -112.79296875 10.6630859375 -116.366210938 5.28125 -127.115234375 c 0
 0.439453125 -136.786132812 -0.5908203125 -147.51171875 3.71875 -157.416015625 c 0
 5.021484375 -160.411132812 7.1748046875 -163.127929688 8.90234375 -165.984375 c 0
 11.4521484375 -168.575195312 13.7265625 -171.353515625 16.55078125 -173.7578125 c 0
 33.9599609375 -188.580078125 58.53515625 -195.907226562 82.599609375 -200.98828125 c 0
 87.91015625 -201.790039062 93.16796875 -202.856445312 98.53125 -203.392578125 c 0
 123.8125 -205.921875 149.2421875 -202.46875 172.279296875 -194 c 0
 190.861328125 -185.645507812 206.239257812 -180.0625 222.099609375 -170.0234375 c 0
 240.345703125 -158.474609375 252.958984375 -145.110351562 263.712890625 -128.763671875 c 0
 266.391601562 -124.56640625 269.216796875 -120.42578125 271.75 -116.171875 c 0
 286.19140625 -91.9267578125 296.473632812 -66.2890625 305.19140625 -40.42578125 c 0
 306.98828125 -34.80078125 308.904296875 -29.19921875 310.583984375 -23.55078125 c 0
 319.217773438 5.484375 325.022460938 35.0283203125 328.40234375 64.734375 c 0
 331.838867188 96.2177734375 334.021484375 127.76953125 337.337890625 159.259765625 c 0
 340.211914062 183.52734375 343.01171875 208.081054688 352.06640625 231.482421875 c 0
 355.44921875 238.766601562 358.759765625 245.663085938 364.525390625 252.009765625 c 0
 365.689453125 253.291992188 366.938476562 254.528320312 368.26953125 255.705078125 c 0
 369.396484375 255.896484375 370.529296875 256.067382812 371.669921875 256.20703125 c 0
 371.931640625 256.237304688 372.178710938 256.266601562 372.427734375 256.296875 c 0
 374.986328125 256.587890625 377.565429688 256.770507812 380.12890625 256.884765625 c 2
 381.955078125 257.939453125 l 2
 383.939453125 258.396484375 386.051757812 258.91796875 389.103515625 259.640625 c 2
 397.3828125 262.51171875 l 1
 419.396484375 279.716796875 l 2
 416.674804688 278.666015625 413.952148438 277.615234375 411.23046875 276.564453125 c 0
 403.272460938 274.448242188 401.3828125 273.678710938 393.1171875 272.580078125 c 0
 380.376953125 270.885742188 367.454101562 271.52734375 354.7578125 273.25 c 0
 337.614257812 275.892578125 320.794921875 280.001953125 303.974609375 284.2109375 c 0
 292.059570312 287.095703125 280.057617188 290.520507812 267.708984375 290.58984375 c 0
 264.41015625 290.342773438 261.791015625 290.265625 258.552734375 289.56640625 c 0
 244.379882812 286.50390625 231.73828125 275.430664062 219.65234375 269.564453125 c 2
 247.2109375 280.34765625 l 2
 233.952148438 272.518554688 227.110351562 268.631835938 223.658203125 266.71875 c 1
 226.814453125 268.352539062 231.807617188 270.759765625 235.646484375 271.83984375 c 0
 239.254882812 272.85546875 240.75 272.897460938 244.49609375 273.369140625 c 0
 256.799804688 274.061523438 268.845703125 270.8046875 280.74609375 268.134765625 c 0
 297.764648438 264.116210938 314.745117188 260.009765625 332.021484375 257.263671875 c 0
 339.610351562 256.203125 347.2734375 255.508789062 354.94140625 255.400390625 c 1
 352.370117188 254.162109375 349.817382812 252.900390625 347.3046875 251.587890625 c 0
 344.859375 250.310546875 339.935546875 244.8828125 338.533203125 243.150390625 c 0
 333.22265625 236.5859375 330.239257812 229.607421875 327.21484375 222.240234375 c 0
 319.227539062 198.727539062 316.82421875 174.2890625 314.21484375 150.10546875 c 0
 313.955078125 147.430664062 313.712890625 144.755859375 313.46875 142.080078125 c 0
 304.904296875 138.692382812 296.329101562 135.336914062 287.578125 132.48046875 c 0
 252.6328125 121.073242188 214.561523438 112.606445312 177.578125 117.798828125 c 0
 150.806640625 121.557617188 145.8515625 126.703125 122.681640625 138.970703125 c 0
 115.340820312 145.307617188 107.358398438 150.96875 100.658203125 157.98046875 c 0
 71.65234375 188.334960938 55.8017578125 229.456054688 46.3515625 269.654296875 c 0
 43.8251953125 280.40234375 42.283203125 291.357421875 40.248046875 302.208984375 c 0
 37.35546875 331.404296875 35.759765625 338.57421875 36.375 367.927734375 c 0
 37.263671875 410.314453125 45.1826171875 452.172851562 60.056640625 491.8828125 c 0
 64.0634765625 501.065429688 67.6513671875 510.44140625 72.076171875 519.4296875 c 0
 93.7880859375 563.529296875 124.899414062 602.305664062 160.228515625 636.19921875 c 0
 179.001953125 652.874023438 180.233398438 654.723632812 200.068359375 669.44921875 c 0
 206.375976562 674.131835938 213.14453125 678.18359375 219.349609375 683.001953125 c 0
 220.092773438 683.579101562 215.810546875 681.810546875 216.615234375 682.298828125 c 0
 229.834960938 690.313476562 237.844726562 693.803710938 251.595703125 700.455078125 c 0
 257.0234375 702.774414062 262.3828125 705.260742188 267.87890625 707.412109375 c 0
 289.411132812 715.837890625 312.116210938 721.470703125 335.33203125 721.58203125 c 0
 338.890625 721.416992188 342.45703125 721.389648438 346.005859375 721.0859375 c 0
 359.739257812 719.909179688 373.061523438 716.103515625 384.806640625 708.78515625 c 0
 392.798828125 703.233398438 399.930664062 697.391601562 406.12890625 689.828125 c 1
 431.470703125 705.04296875 l 1
 424.600585938 712.250976562 417.05078125 718.515625 408.84375 724.125 c 0
 396.63671875 731.676757812 382.846679688 735.741210938 368.59765625 737.048828125 c 0
 364.948242188 737.383789062 361.27734375 737.420898438 357.6171875 737.607421875 c 0
223.658203125 266.71875 m 1
 220.48828125 265.078125 219.647460938 264.49609375 223.658203125 266.71875 c 1
EndSplineSet
EndChar

StartChar: Capital
Encoding: 72 72 8
Width: 565
GlyphClass: 2
Flags: HMW
HStem: 576.787 16.5273 589.961 15.4453 952.543 20.3516
VStem: 255.135 23.8867 340.879 20.8262 432.564 26.3789<909.605 923.045>
LayerCount: 2
Fore
SplineSet
180.66015625 792.89453125 m 0x7c
 170.391601562 792.705078125 160.44921875 788.974609375 151.025390625 784.0625 c 0
 123.0234375 767.7109375 96.5615234375 747.836914062 73.09375 723.041015625 c 0
 59.4140625 708.887695312 45.720703125 694.76171875 32.37109375 680.14453125 c 0
 25.3955078125 672.658203125 18.58203125 664.969726562 12 656.970703125 c 1
 39.421875 670.80078125 l 1
 45.482421875 678.76953125 52.08203125 686.077148438 58.7890625 693.224609375 c 0
 71.7431640625 707.801757812 85.2275390625 721.63671875 98.607421875 735.623046875 c 0
 101.400390625 738.4140625 104.16015625 741.252929688 106.986328125 743.994140625 c 0
 111.111328125 747.99609375 118.837890625 755.193359375 123.6953125 759.34375 c 0
 125.76953125 760.713867188 128.138671875 762.307617188 129.4609375 763.10546875 c 0
 139.821289062 768.700195312 150.84765625 773.047851562 162.32421875 772.54296875 c 0
 168.51953125 772.270507812 170.474609375 771.282226562 176.41015625 769.478515625 c 0
 189.142578125 764.268554688 197.571289062 754.137695312 203.294921875 739.439453125 c 0
 204.576171875 736.149414062 205.541992188 732.690429688 206.666015625 729.31640625 c 0
 213.75390625 702.512695312 213.986328125 674.168945312 214.134765625 646.296875 c 0
 214.185546875 604.302734375 209.748046875 562.631835938 204.5234375 521.2109375 c 0
 199.858398438 486.745117188 194.450195312 452.44921875 188.6796875 418.2421875 c 1
 175.376953125 411.907226562 162.83203125 403.70703125 152.275390625 393.53125 c 1
 179.625 404.859375 l 2
 180.208007812 405.512695312 180.8125 406.143554688 181.43359375 406.755859375 c 0
 183.272460938 407.331054688 185.122070312 407.817382812 186.984375 408.21875 c 1
 182.786132812 383.647460938 178.418945312 359.118164062 173.998046875 334.60546875 c 0
 160.959960938 265.758789062 147.26953125 197.103515625 134.666015625 128.134765625 c 0
 133 117.756835938 131.33203125 107.377929688 129.666015625 97 c 1
 151.16015625 109.71484375 l 1
 152.749023438 120.01953125 154.336914062 130.32421875 155.92578125 140.62890625 c 0
 168.09765625 209.5625 181.60546875 278.119140625 194.7421875 346.787109375 c 0
 198.637695312 367.8359375 202.530273438 388.887695312 206.341796875 409.9609375 c 1x7c
 212.418945312 409.90234375 218.524414062 409.423828125 224.587890625 408.890625 c 0
 245.33203125 406.176757812 266.021484375 403.079101562 286.765625 400.349609375 c 0
 292.361328125 399.588867188 297.966796875 398.923828125 303.580078125 398.361328125 c 1
 301.514648438 378.537109375 301.092773438 366.943359375 299.87890625 345.7890625 c 0
 298.657226562 309.567382812 299.287109375 273.116210938 304.65625 237.20703125 c 0
 307.9921875 214.89453125 309.657226562 210.534179688 315.12109375 189 c 0
 325.087890625 158.955078125 337.407226562 125.528320312 362.810546875 104.78125 c 0
 366.995117188 101.36328125 371.84375 98.849609375 376.359375 95.8828125 c 0
 381.513671875 94.1513671875 386.4765625 91.69140625 391.8203125 90.689453125 c 0
 412.022460938 86.9013671875 432.389648438 93.0595703125 450.705078125 101.083984375 c 0
 472.173828125 110.490234375 501.1796875 128.80859375 519.0234375 139.294921875 c 2
 544.55859375 156.0234375 l 1
 523.3515625 147.751953125 l 1
 497.32421875 130.931640625 l 2
 487.259765625 124.092773438 487.673828125 124.103515625 470.126953125 116.2734375 c 0
 452.568359375 108.438476562 432.993164062 102.255859375 413.505859375 105.435546875 c 0
 408.31640625 106.282226562 403.454101562 108.524414062 398.427734375 110.068359375 c 0
 393.963867188 112.858398438 389.186523438 115.201171875 385.03515625 118.4375 c 0
 359.366210938 138.450195312 346.818359375 170.955078125 336.548828125 200.611328125 c 0
 334.515625 208.28125 332.198242188 215.879882812 330.44921875 223.619140625 c 0
 320.631835938 267.06640625 319.349609375 311.903320312 320.705078125 356.25 c 0
 321.69140625 372.85546875 322.162109375 383.517578125 323.36328125 396.931640625 c 1
 329.630859375 396.670898438 335.905273438 396.594726562 342.189453125 396.787109375 c 0
 345.05078125 397.088867188 347.9140625 397.389648438 350.775390625 397.69140625 c 2
 373.21875 414.400390625 l 2
 370.3984375 414.0390625 367.578125 413.67578125 364.7578125 413.314453125 c 0xbc
 351.538085938 412.716796875 338.34375 413.250976562 325.189453125 414.466796875 c 1
 329.295898438 449.556640625 336.259765625 484.301757812 345.775390625 518.318359375 c 0
 348.129882812 526.268554688 350.369140625 534.254882812 352.837890625 542.169921875 c 0
 363.65234375 576.83984375 376.787109375 610.70703125 389.91796875 644.546875 c 0
 398.53515625 666.611328125 407.72265625 688.645507812 413.126953125 711.771484375 c 0
 415.352539062 722.083007812 417.74609375 732.446289062 417.943359375 743.044921875 c 1
 391.564453125 729.60546875 l 1
 392.075195312 719.4296875 389.595703125 709.353515625 387.642578125 699.43359375 c 0
 382.663085938 676.819335938 374.091796875 655.16796875 366.11328125 633.486328125 c 0
 353.904296875 599.763671875 341.3203125 566.145507812 330.857421875 531.82421875 c 0
 328.443359375 523.90625 326.254882812 515.921875 323.953125 507.970703125 c 0
 315.75 478.028320312 309.720703125 447.498046875 305.71875 416.7109375 c 1
 286.186523438 419.282226562 266.685546875 422.056640625 247.203125 424.986328125 c 0
 234.532226562 426.372070312 221.65234375 427.611328125 209.11328125 425.40625 c 1
 215.595703125 461.721679688 221.767578125 498.118164062 227.150390625 534.705078125 c 0
 232.803710938 576.540039062 237.701171875 618.635742188 238.021484375 661.12109375 c 0
 238.114257812 689.55078125 238.064453125 718.442382812 230.98046875 745.84375 c 0
 229.84765625 749.369140625 228.884765625 752.982421875 227.58203125 756.419921875 c 0
 221.711914062 771.916992188 212.958984375 783.041992188 199.7265625 789 c 0
 193.631835938 791.078125 191.479492188 792.213867188 185.080078125 792.751953125 c 0
 183.600585938 792.875976562 182.126953125 792.921875 180.66015625 792.89453125 c 0x7c
EndSplineSet
EndChar

StartChar: Capital
Encoding: 73 73 9
Width: 284
GlyphClass: 2
Flags: HMW
HStem: 926.846 16.9395
VStem: 102.326 21.3184 115.119 26.3555
LayerCount: 2
Fore
SplineSet
154.345703125 736.78515625 m 0x80
 149.748046875 736.888671875 145.103515625 736.100585938 140.537109375 734.3671875 c 0
 138.498046875 733.59375 136.598632812 732.493164062 134.62890625 731.556640625 c 0
 112.002929688 718.19140625 107.979492188 719.848632812 98.232421875 703.466796875 c 1
 124.40234375 714.98046875 l 2
 125.502929688 716.587890625 126.469726562 718.295898438 127.705078125 719.802734375 c 0
 127.717773438 719.817382812 127.729492188 719.831054688 127.7421875 719.845703125 c 0
 134.396484375 720.84765625 141.119140625 719.80859375 147.5234375 716.62109375 c 0
 149.16015625 715.606445312 150.901367188 714.7421875 152.43359375 713.576171875 c 0
 160.436523438 707.485351562 163.690429688 698.428710938 163.017578125 688.59375 c 0
 161.133789062 678.922851562 158.645507812 672.716796875 151.880859375 665.2421875 c 0
 151.200195312 664.490234375 149.827148438 663.397460938 148.544921875 662.375 c 0
 138.662109375 660.22265625 128.392578125 661.6875 118.75390625 665.3984375 c 0
 110.419921875 669.708984375 99.1435546875 675.680664062 97.71875 686.197265625 c 0
 97.544921875 687.478515625 97.798828125 688.78125 97.837890625 690.07421875 c 0
 98.41796875 691.607421875 98.734375 692.58203125 99.1171875 693.46875 c 0
 104.594726562 693.963867188 109.8125 693.231445312 115.435546875 690.966796875 c 0
 120.723632812 688.310546875 125.372070312 684.796875 129.15234375 680.203125 c 1
 154.4609375 695.7109375 l 1
 150.096679688 700.15625 145.306640625 703.94921875 139.853515625 706.955078125 c 0
 131.955078125 710.729492188 123.504882812 711.133789062 115.01953125 709.6875 c 0
 101.3203125 705.81640625 89.9189453125 697.302734375 77.93359375 689.50390625 c 0
 76.0673828125 688.290039062 73.51171875 684.116210938 72.724609375 682.09765625 c 0
 72.1748046875 680.6875 71.986328125 679.162109375 71.6171875 677.693359375 c 0
 71.7177734375 676.123046875 71.5947265625 674.520507812 71.91796875 672.98046875 c 0
 74.326171875 661.502929688 85.7705078125 655.0078125 95.19140625 649.966796875 c 0
 107.888671875 644.736328125 121.981445312 642.931640625 135.048828125 648.0390625 c 0
 137.506835938 649 139.78125 650.370117188 142.1484375 651.537109375 c 0
 152.264648438 657.80859375 162.67578125 663.627929688 172.49609375 670.353515625 c 0
 174.653320312 671.831054688 176.2421875 674.016601562 177.912109375 676.029296875 c 0
 182.485351562 681.541992188 185.936523438 687.921875 187.6640625 694.888671875 c 0
 188.169921875 696.928710938 188.352539062 699.034179688 188.697265625 701.107421875 c 0
 189.0703125 711.89453125 185.239257812 721.669921875 176.7578125 728.5703125 c 0
 175.141601562 729.885742188 173.303710938 730.901367188 171.576171875 732.06640625 c 0
 166.090820312 735.043945312 160.256835938 736.65234375 154.345703125 736.78515625 c 0x80
119.275390625 717.44140625 m 1
 117.22265625 716.317382812 115.0078125 715.1171875 112.419921875 713.73828125 c 1
 114.291015625 714.794921875 116.08203125 716.008789062 118.033203125 716.908203125 c 0
 118.4453125 717.098632812 118.861328125 717.267578125 119.275390625 717.44140625 c 1
164.0859375 669.171875 m 1
 161.885742188 667.921875 159.774414062 666.500976562 157.4921875 665.41015625 c 1
 159.673828125 666.702148438 161.850585938 668.0078125 164.0859375 669.171875 c 1
141.96875 616.322265625 m 1
 132.995117188 612.16015625 123.934570312 608.184570312 115.05078125 603.8359375 c 0
 114.852539062 603.739257812 115.129882812 603.399414062 115.119140625 603.1796875 c 0xa0
 115.09765625 602.724609375 115.015625 602.2734375 114.955078125 601.822265625 c 0
 114.434570312 597.936523438 113.82421875 594.063476562 113.265625 590.18359375 c 0
 109.5234375 565.44921875 105.440429688 540.755859375 102.7734375 515.873046875 c 0
 101.135742188 498.073242188 100.67578125 495.569335938 99.96484375 477.34765625 c 0
 98.763671875 446.563476562 99.978515625 415.74609375 102.326171875 385.04296875 c 0
 106.193359375 337.689453125 112.283203125 290.516601562 114.708984375 243.056640625 c 0
 114.768554688 236.397460938 115.001953125 229.73828125 114.888671875 223.080078125 c 0
 114.370117188 192.698242188 110.33203125 162.284179688 101.19921875 133.251953125 c 0
 96.32421875 119.971679688 91.9296875 108.090820312 83.841796875 96.337890625 c 0
 81.9033203125 93.5205078125 79.822265625 90.783203125 77.490234375 88.28125 c 0
 77.478515625 88.2685546875 77.4560546875 88.25 77.443359375 88.236328125 c 0
 70.1669921875 87.060546875 62.541015625 88.2451171875 55.66796875 90.669921875 c 0
 48.572265625 93.8037109375 41.423828125 97.224609375 36.44140625 103.40625 c 1
 11 88.201171875 l 1
 16.7177734375 82.0419921875 24.0830078125 78.1337890625 31.6328125 74.70703125 c 0
 40.5830078125 71.357421875 50.6435546875 69.76171875 60.046875 72.314453125 c 0
 62.259765625 72.9150390625 64.3525390625 73.8935546875 66.505859375 74.68359375 c 0
 80.7861328125 83.0556640625 93.513671875 86.9580078125 103.326171875 98.900390625 c 0
 114.201171875 112.135742188 119.774414062 128.467773438 125.119140625 144.439453125 c 0
 133.48046875 173.692382812 137.35546875 204.137695312 137.595703125 234.5390625 c 0
 137.6484375 241.217773438 137.352539062 247.892578125 137.23046875 254.5703125 c 0
 135.224609375 293.487304688 129.282226562 332.0546875 125.673828125 370.830078125 c 0
 124.890625 379.251953125 124.321289062 387.692382812 123.64453125 396.123046875 c 0xc0
 120.911132812 433.567382812 120.344726562 471.20703125 123.669921875 508.6328125 c 0
 123.670898438 508.640625 123.670898438 508.6484375 123.671875 508.65625 c 1
 128.282226562 485.166992188 133.790039062 461.864257812 138.591796875 438.4140625 c 0
 143.627929688 413.823242188 144.365234375 408.88671875 148.916015625 383.7421875 c 0
 158.819335938 323.1484375 167.953125 262.443359375 178.697265625 201.98828125 c 0
 185.0625 168.37890625 191.577148438 134.612304688 202.013671875 101.97265625 c 0
 207.303710938 85.4287109375 208.68359375 83.12890625 215.2109375 67.876953125 c 0
 220.259765625 58.6162109375 222.370117188 53.5859375 228.912109375 45.626953125 c 0
 230.956054688 43.140625 233.423828125 41.0361328125 235.6796875 38.740234375 c 2
 259.3203125 53.302734375 l 2
 256.995117188 55.376953125 254.458984375 57.23828125 252.34375 59.52734375 c 0
 245.452148438 66.984375 243.270507812 71.771484375 237.9140625 80.685546875 c 0
 235.536132812 85.6845703125 232.955078125 90.5908203125 230.78125 95.681640625 c 0
 214.849609375 132.989257812 207.060546875 173.23046875 198.921875 212.751953125 c 0
 187.791015625 273.172851562 178.760742188 333.919921875 169.41796875 394.63671875 c 0
 161.928710938 439.600585938 153.34375 484.364257812 145.78125 529.3125 c 0
 143.041992188 549.806640625 140.673828125 570.419921875 141.474609375 591.140625 c 0xa0
 141.62890625 599.411132812 141.892578125 607.684570312 141.96484375 615.953125 c 1
 141.89453125 615.916992188 141.82421875 615.881835938 141.75390625 615.845703125 c 1
 141.786132812 615.913085938 141.815429688 615.981445312 141.85546875 616.044921875 c 0
 141.874023438 616.07421875 141.916992188 616.096679688 141.966796875 616.115234375 c 0
 141.967773438 616.184570312 141.967773438 616.252929688 141.96875 616.322265625 c 1
141.966796875 616.115234375 m 0
 141.965820312 616.061523438 141.965820312 616.006835938 141.96484375 615.953125 c 1
 142.078125 616.012695312 142.192382812 616.071289062 142.306640625 616.130859375 c 0
 142.412109375 616.185546875 142.13671875 616.1796875 141.966796875 616.115234375 c 0
EndSplineSet
EndChar

StartChar: Capital
Encoding: 74 74 10
Width: 421
GlyphClass: 2
Flags: HMW
HStem: 21.666 25.6855 927.795 20G 961.334 21G<420.757 420.757> 994.184 16.4316
LayerCount: 2
Fore
SplineSet
154.133789062 804.615234375 m 2
 153.0625 804.625 151.993164062 804.625 150.922851562 804.615234375 c 0
 137.1875 804.088867188 123.467773438 802.91015625 110.104492188 799.505859375 c 1
 86.6572265625 781.455078125 l 1
 100.219726562 785.811523438 114.392578125 787.327148438 128.540039062 788.18359375 c 0
 145.500976562 788.678710938 162.58984375 786.506835938 178.700195312 781.056640625 c 0
 181.923828125 779.965820312 185.053710938 778.614257812 188.231445312 777.392578125 c 0
 206.305664062 770.116210938 222.912109375 759.86328125 238.887695312 748.828125 c 0
 248.123046875 742.263671875 256.916992188 735.037109375 266.450195312 728.892578125 c 0
 272.560546875 724.954101562 273.721679688 724.55859375 280.166992188 721.25390625 c 0
 292.516601562 715.400390625 305.860351562 713.790039062 319.174804688 717.1015625 c 0
 322.081054688 717.82421875 324.887695312 718.8984375 327.745117188 719.796875 c 0
 342.185546875 725.555664062 355.33984375 733.06640625 367.674804688 741.794921875 c 1
 366.165039062 739.45703125 364.65234375 736.947265625 363.098632812 734.21875 c 0
 352.046875 712.803710938 347.720703125 688.6015625 344.329101562 664.484375 c 0
 339.3671875 614.170898438 336.7109375 563.602539062 333.247070312 513.138671875 c 0
 327.396484375 430.836914062 321.756835938 348.521484375 314.661132812 266.33984375 c 0
 314.034179688 259.828125 313.397460938 253.315429688 312.762695312 246.802734375 c 1
 276.9765625 225.21875 242.374023438 201.252929688 210.735351562 172.591796875 c 0
 203.41015625 165.782226562 195.987304688 159.1015625 188.760742188 152.162109375 c 0
 152.392578125 117.23828125 118.145507812 79.447265625 87.6123046875 38.09375 c 0
 64.064453125 5.12109375 38.9814453125 -29.994140625 25.7958984375 -70.064453125 c 0
 23.826171875 -76.0498046875 22.5654296875 -82.296875 20.9501953125 -88.4140625 c 0
 19.486328125 -101.392578125 17.8115234375 -106.892578125 20.1962890625 -119.625 c 0
 23.5810546875 -137.701171875 35.8095703125 -149.471679688 49.4755859375 -158.26171875 c 0
 53.392578125 -160.372070312 57.228515625 -162.681640625 61.2275390625 -164.59375 c 0
 84.71875 -175.826171875 110.296875 -180.801757812 135.489257812 -184.333984375 c 0
 151.86328125 -185.243164062 168.200195312 -186.104492188 184.385742188 -182.197265625 c 0
 208.412109375 -176.396484375 230.05859375 -161.0078125 248.098632812 -142.748046875 c 0
 251.836914062 -137.630859375 255.9765625 -132.849609375 259.315429688 -127.3984375 c 0
 267.399414062 -114.200195312 273.360351562 -99.3466796875 278.329101562 -84.431640625 c 0
 288.693359375 -53.3193359375 294.905273438 -20.7451171875 300.700195312 11.72265625 c 0
 302.747070312 24.7705078125 304.92578125 37.7939453125 306.842773438 50.8671875 c 0
 316.510742188 116.807617188 323.407226562 183.211914062 330.104492188 249.6015625 c 0
 332.478515625 250.688476562 337.58203125 252.987304688 351.473632812 259.37109375 c 1
 370.278320312 275.919921875 l 1
 357.081054688 269.90625 343.75390625 264.149414062 330.881835938 257.279296875 c 1
 331.524414062 263.66015625 332.176757812 270.041992188 332.819335938 276.421875 c 0
 340.419921875 359.125 346.633789062 441.969726562 353.989257812 524.69921875 c 0
 358.244140625 575.692382812 361.763671875 626.828125 368.260742188 677.541015625 c 0
 372.2578125 701.637695312 377.185546875 725.833007812 388.991210938 746.873046875 c 0
 392.4375 752.381835938 393.43359375 754.400390625 397.409179688 759.212890625 c 0
 398.68359375 760.755859375 400.032226562 762.225585938 401.450195312 763.603515625 c 0
 402.639648438 764.760742188 406.614257812 767.62109375 405.217773438 766.802734375 c 0
 401.32421875 764.522460938 392.073242188 758.739257812 386.756835938 755.333984375 c 2
 408.975585938 774.6171875 l 1
 396.451171875 769.060546875 387.829101562 764.091796875 380.709960938 757.603515625 c 2
 368.512695312 752.6328125 l 2
 361.416015625 746.36328125 359.305664062 744.237304688 351.643554688 738.54296875 c 0
 350.904296875 737.993164062 349.740234375 737.236328125 348.475585938 736.4375 c 0
 346.172851562 735.599609375 343.884765625 734.71484375 341.532226562 734.037109375 c 0
 328.745117188 730.35546875 315.833007812 731.227539062 303.711914062 736.734375 c 0
 297.399414062 739.856445312 296.134765625 740.290039062 290.129882812 744.03125 c 0
 280.477539062 750.043945312 271.625976562 757.24609375 262.364257812 763.81640625 c 0
 246.130859375 774.883789062 229.37890625 785.297851562 211.127929688 792.7578125 c 0
 207.903320312 794.036132812 204.7265625 795.443359375 201.454101562 796.591796875 c 0
 186.2734375 801.919921875 170.1953125 804.463867188 154.133789062 804.6171875 c 1
 154.133789062 804.615234375 l 2
312.114257812 240.119140625 m 1
 305.564453125 173.384765625 298.379882812 106.668945312 287.971679688 40.537109375 c 0
 285.900390625 27.37890625 283.514648438 14.2841796875 281.286132812 1.158203125 c 0
 275 -31.6337890625 268.096679688 -64.49609375 256.836914062 -95.689453125 c 0
 251.337890625 -110.922851562 244.951171875 -125.548828125 236.219726562 -138.830078125 c 0
 232.661132812 -144.2421875 228.307617188 -148.943359375 224.352539062 -154 c 0
 222.514648438 -155.600585938 220.608398438 -157.11328125 218.719726562 -158.6484375 c 0
 214.083007812 -158.682617188 209.819335938 -162.94140625 205.192382812 -164.203125 c 0
 189.161132812 -168.57421875 172.98828125 -167.977539062 156.676757812 -167.296875 c 0
 131.794921875 -164.143554688 106.581054688 -159.06640625 83.4541015625 -147.90234375 c 0
 79.5517578125 -146.018554688 75.806640625 -143.75 71.9833984375 -141.673828125 c 0
 58.994140625 -133.241210938 47.326171875 -122.078125 44.1162109375 -104.849609375 c 0
 41.8603515625 -92.7451171875 43.4091796875 -87.6611328125 44.7568359375 -75.275390625 c 0
 46.28125 -69.3828125 47.4619140625 -63.365234375 49.3310546875 -57.59765625 c 0
 62.1220703125 -18.1201171875 86.4443359375 16.0517578125 109.499023438 48.544921875 c 0
 139.774414062 89.775390625 173.935546875 127.301757812 210.209960938 161.916015625 c 0
 217.475585938 168.849609375 224.944335938 175.51171875 232.311523438 182.310546875 c 0
 254.059570312 201.524414062 276.821289062 219.275390625 300.827148438 234.798828125 c 0
 301.778320312 235.4140625 302.9609375 235.435546875 303.961914062 235.943359375 c 0
 307.444335938 237.711914062 309.608398438 238.831054688 312.114257812 240.119140625 c 1
EndSplineSet
EndChar

StartChar: Capital
Encoding: 75 75 11
Width: 509
GlyphClass: 2
Flags: HMW
HStem: 510.117 18.5156 902.465 9.34961 915.512 17.7168
VStem: 171.98 20.0176
LayerCount: 2
Fore
SplineSet
104.1640625 793.892578125 m 1
 78.421875 777.728515625 l 1
 85.8095703125 765.04296875 93.97265625 752.96875 100.748046875 739.83984375 c 0
 103.279296875 734.934570312 105.611328125 729.907226562 108.04296875 724.94140625 c 0
 121.486328125 695.995117188 130.840820312 664.856445312 135.240234375 632.66015625 c 0
 139.07421875 604.604492188 138.392578125 595.020507812 138.98046875 566.119140625 c 0
 137.555664062 499.6875 124.805664062 434.55078125 108.287109375 370.857421875 c 0
 106.388671875 364.450195312 104.506835938 358.005859375 103.12109375 351.443359375 c 0
 102.453125 348.984375 101.79296875 346.521484375 101.1171875 344.06640625 c 0
 96.455078125 327.138671875 91.3388671875 310.3671875 86.44921875 293.517578125 c 0
 71.4072265625 243.750976562 55.1796875 194.422851562 37.4765625 145.73046875 c 0
 32.1279296875 131.01953125 26.4921875 116.435546875 21 101.7890625 c 1
 39.08203125 111 l 1
 61.9248046875 174.166015625 84.060546875 237.649414062 103.318359375 302.27734375 c 0
 107.32421875 315.877929688 111.453125 329.435546875 115.404296875 343.0546875 c 1
 120.047851562 343.751953125 124.712890625 344.225585938 129.419921875 344.1171875 c 0
 132.447265625 344.047851562 135.463867188 343.70703125 138.486328125 343.501953125 c 0
 161.775390625 339.887695312 184.328125 330.39453125 203.416015625 315.072265625 c 0
 208.505859375 310.986328125 213.12890625 306.23828125 217.986328125 301.8203125 c 0
 222.653320312 296.294921875 227.689453125 291.124023438 231.98828125 285.24609375 c 0
 253.698242188 255.560546875 266.971679688 219.276367188 277.099609375 183.1953125 c 0
 280.002929688 172.852539062 282.366210938 162.334960938 285 151.904296875 c 0
 292.303710938 122.275390625 297.112304688 91.962890625 304.341796875 62.31640625 c 0
 306.352539062 54.072265625 308.798828125 45.96484375 311.02734375 37.7890625 c 1
 332.56640625 50.82421875 l 1
 330.155273438 58.828125 327.483398438 66.7421875 325.333984375 74.8359375 c 0
 317.5234375 104.245117188 312.526367188 134.489257812 305.25 164.05078125 c 0
 302.64453125 174.55078125 300.28125 185.12890625 297.43359375 195.552734375 c 0
 287.453125 232.0859375 274.803710938 269.088867188 253.482421875 299.62109375 c 0
 249.25390625 305.676757812 244.258789062 311.029296875 239.646484375 316.734375 c 0
 234.836914062 321.32421875 230.26171875 326.234375 225.216796875 330.505859375 c 0
 206.4921875 346.362304688 184.280273438 356.565429688 161.17578125 361.36328125 c 0
 154.201171875 362.188476562 151.563476562 362.770507812 144.787109375 362.6328125 c 0
 139.2890625 362.520507812 133.8984375 361.318359375 128.44140625 360.8125 c 1
 129.8046875 370.272460938 132.486328125 379.48828125 134.943359375 388.650390625 c 0
 142.653320312 417.893554688 155.826171875 444.732421875 168.85546875 471.400390625 c 0
 189.291015625 511.530273438 209.951171875 551.520507812 230.306640625 591.701171875 c 0
 246.733398438 623.58203125 261.436523438 656.684570312 280.412109375 686.890625 c 0
 283.404296875 691.653320312 286.6328125 696.229492188 289.744140625 700.8984375 c 0
 300.186523438 715.999023438 312.455078125 729.436523438 327.109375 739.521484375 c 0
 330.39453125 741.782226562 339.947265625 748.856445312 337.228515625 745.814453125 c 0
 333.625976562 741.783203125 328.661132812 739.581054688 324.376953125 736.46484375 c 1
 342.708984375 744.50390625 362.41015625 749.990234375 382.28125 749.51171875 c 0
 386.014648438 749.421875 389.725585938 748.846679688 393.447265625 748.513671875 c 0
 411.395507812 746.528320312 427.395507812 737.140625 444.130859375 730.619140625 c 0
 447.676757812 729.237304688 451.29296875 728.08203125 454.873046875 726.8125 c 2
 466.873046875 723.982421875 l 1
 489.169921875 741.07421875 l 2
 485.280273438 741.979492188 481.391601562 742.883789062 477.501953125 743.7890625 c 0
 473.978515625 745.026367188 470.41796875 746.14453125 466.931640625 747.501953125 c 0
 449.981445312 754.1015625 433.849609375 763.772460938 415.701171875 766.013671875 c 0
 411.891601562 766.418945312 408.095703125 767.067382812 404.271484375 767.228515625 c 0
 384.259765625 768.069335938 364.340820312 762.817382812 345.716796875 755.1796875 c 0
 330.990234375 746.440429688 315.745117188 738.620117188 301.763671875 728.5 c 0
 287.477539062 718.16015625 275.686523438 704.481445312 265.59765625 689.361328125 c 0
 262.602539062 684.692382812 259.4921875 680.112304688 256.61328125 675.35546875 c 0
 238.305664062 645.1015625 224.094726562 612.15625 207.79296875 580.609375 c 0
 187.170898438 540.1484375 166.112304688 499.963867188 145.181640625 459.697265625 c 0
 144.779296875 458.887695312 144.37890625 458.075195312 143.9765625 457.265625 c 1
 151.939453125 496.786132812 157.516601562 536.826171875 158.998046875 577.40625 c 0
 158.9375 589.241210938 159.297851562 601.088867188 158.81640625 612.912109375 c 0
 157.03515625 656.689453125 147.9375 699.713867188 130.94140625 739.36328125 c 0
 124.875976562 752.936523438 124.291992188 754.775390625 117.861328125 767.30078125 c 0
 112.517578125 777.708984375 113.251953125 775.561523438 108.353515625 784.875 c 0
 105.73046875 789.86328125 106.002929688 789.436523438 104.1640625 793.892578125 c 1
EndSplineSet
EndChar

StartChar: Capital
Encoding: 76 76 12
Width: 517
GlyphClass: 2
Flags: HMW
HStem: 322.162 16.6426
LayerCount: 2
Fore
SplineSet
302.057617188 791.72265625 m 1
 280.021484375 784.826171875 259.591796875 774.541992188 240.08203125 763.76953125 c 0
 223.905273438 754.837890625 211.665039062 742.649414062 201.067382812 729.427734375 c 0
 187.083984375 710.837890625 177.623046875 690.254882812 168.663085938 669.779296875 c 0
 154.185546875 633.5234375 141.48046875 596.8203125 129.592773438 559.9453125 c 0
 114.578125 512.801757812 104.260742188 464.793945312 94.6650390625 416.75 c 0
 85.150390625 370.068359375 78.220703125 323.0859375 71.720703125 276.072265625 c 0
 67.810546875 240.65625 63.2431640625 205.317382812 57.615234375 170.05859375 c 0
 54.626953125 156.122070312 53.1669921875 141.8125 47.927734375 128.265625 c 0
 44.5361328125 121.987304688 42.43359375 115.392578125 40.3544921875 108.771484375 c 0
 38.9873046875 104.244140625 38.2333984375 99.630859375 37.6611328125 95 c 0
 35.46875 91.673828125 33.5478515625 88.2294921875 32 84.640625 c 2
 36.7353515625 86.498046875 l 2
 36.6162109375 85.23828125 36.6171875 85.2705078125 36.44140625 83.283203125 c 2
 68.736328125 96.615234375 l 2
 68.765625 98.9404296875 68.73828125 97.6826171875 68.83203125 100.38671875 c 0
 68.9521484375 102.365234375 69.1201171875 104.34375 69.337890625 106.31640625 c 0
 74.056640625 113.625976562 80.240234375 120.29296875 86.6640625 126.658203125 c 0
 88.98828125 128.583007812 91.1640625 130.634765625 93.63671875 132.431640625 c 0
 94.6162109375 133.143554688 95.62890625 133.826171875 96.654296875 134.49609375 c 0
 98.912109375 135.26953125 101.556640625 136.141601562 104.440429688 136.951171875 c 0
 108.860351562 138.19140625 113.412109375 139.091796875 117.897460938 140.162109375 c 0
 144.752929688 145.684570312 172.547851562 147.806640625 200.197265625 146.564453125 c 0
 206.10546875 146.298828125 211.987304688 145.7265625 217.8828125 145.306640625 c 0
 240.78125 142.76171875 262.995117188 137.067382812 283.405273438 128.162109375 c 0
 294.184570312 123.458984375 302.223632812 118.829101562 312.3984375 113.326171875 c 0
 331.275390625 102.46484375 348.91796875 90.2431640625 367.763671875 79.349609375 c 0
 380.827148438 71.798828125 383.484375 70.7080078125 397.13671875 63.837890625 c 0
 417.946289062 54.2841796875 440.306640625 46.513671875 464.145507812 43.94921875 c 0
 481.497070312 42.08203125 486.430664062 42.9951171875 504 43.794921875 c 0
 523.915039062 46.6201171875 528.16015625 46.595703125 547.713867188 52 c 0
 555.4140625 54.1279296875 562.850585938 56.84765625 570.418945312 59.271484375 c 2
 594.75390625 74.927734375 l 2
 587.32421875 72.4873046875 580.026367188 69.75390625 572.463867188 67.60546875 c 0
 553.459960938 62.2080078125 549.055664062 62.158203125 529.677734375 59.263671875 c 0
 512.391601562 58.3271484375 507.750976562 57.39453125 490.662109375 59.095703125 c 0
 467.12890625 61.4384765625 445.049804688 68.966796875 424.462890625 78.28125 c 0
 410.908203125 85.078125 408.262695312 86.1640625 395.278320312 93.62890625 c 0
 376.357421875 104.506835938 358.686523438 116.755859375 339.838867188 127.716796875 c 0
 329.669921875 133.271484375 321.372070312 138.081054688 310.602539062 142.857421875 c 0
 289.973632812 152.006835938 267.506835938 157.967773438 244.3046875 160.7265625 c 0
 238.368164062 161.188476562 232.4453125 161.791015625 226.494140625 162.111328125 c 0
 198.962890625 163.594726562 171.229492188 161.908203125 144.342773438 156.8046875 c 0
 114.420898438 150.389648438 112.181640625 147.923828125 79.1064453125 132.228515625 c 0
 77.9921875 131.700195312 76.8974609375 131.1484375 75.81640625 130.578125 c 1
 77.1669921875 133.99609375 78.6025390625 137.390625 80.05859375 140.79296875 c 0
 83.9140625 154.303710938 84.6806640625 168.25 86.9853515625 181.9609375 c 0
 91.4033203125 216.97265625 95.0947265625 252.034179688 98.873046875 287.095703125 c 0
 104.963867188 333.967773438 111.67578125 380.801757812 121.055664062 427.322265625 c 0
 130.6484375 475.453125 141.516601562 523.463867188 156.904296875 570.611328125 c 0
 169.290039062 607.78515625 182.567382812 644.7734375 198.338867188 681.091796875 c 0
 207.884765625 701.545898438 217.846679688 722.116210938 232.346679688 740.6171875 c 0
 242.622070312 752.743164062 254.30859375 763.90234375 269.18359375 772.330078125 c 0
 269.567382812 772.466796875 269.990234375 772.625976562 270.321289062 772.732421875 c 0
 271.34375 773.059570312 272.416992188 773.267578125 273.46484375 773.53515625 c 2
 302.057617188 791.72265625 l 1
EndSplineSet
EndChar

StartChar: Capital
Encoding: 77 77 13
Width: 712
GlyphClass: 2
Flags: HMW
HStem: 939.75 29.2207
VStem: 528.798 18.4766 822.96 13.3438
LayerCount: 2
Fore
SplineSet
275.247070312 807.2578125 m 0
 270.774414062 807.291992188 266.278320312 806.872070312 261.809570312 806.970703125 c 0
 254.29296875 804.60546875 246.412109375 804.034179688 239.258789062 799.876953125 c 0
 224.258789062 791.159179688 210.063476562 779.6328125 195.778320312 768.59375 c 0
 161.545898438 742.140625 132.672851562 703.723632812 107.547851562 660.736328125 c 0
 90.80078125 629.198242188 85.1240234375 620.543945312 71.1259765625 586.03515625 c 0
 50.5986328125 535.4296875 36.01953125 480.110351562 28.9736328125 421.97265625 c 0
 27.78125 408.931640625 26.2509765625 395.948242188 25.3955078125 382.849609375 c 0
 21.86328125 328.751953125 25.18359375 274.478515625 33.6884765625 221.705078125 c 0
 40.267578125 181.799804688 47.3212890625 141.782226562 58.1416015625 103.857421875 c 0
 63.1435546875 88.212890625 68.466796875 72.607421875 75.8896484375 59.109375 c 1
 101.231445312 81.62109375 l 1
 93.150390625 93.8701171875 87.7119140625 109.240234375 82.4970703125 124.341796875 c 0
 71.00390625 161.318359375 63.3466796875 200.595703125 56.3603515625 239.857421875 c 0
 47.5263671875 291.813476562 43.814453125 345.436523438 46.9716796875 398.912109375 c 0
 47.7353515625 411.836914062 49.1806640625 424.65234375 50.2861328125 437.5234375 c 0
 56.9853515625 495.11328125 71.4384765625 549.842773438 91.8681640625 599.791015625 c 0
 105.865234375 634.01171875 111.637695312 642.719726562 128.407226562 673.943359375 c 0
 147.956054688 706.88671875 169.643554688 737.21484375 194.514648438 761.291015625 c 0
 202.037109375 768.572265625 209.643554688 775.896484375 217.895507812 781.169921875 c 0
 218.91015625 781.818359375 219.174804688 777.580078125 220.274414062 777.75 c 0
 227.712890625 778.896484375 234.879882812 782.526367188 242.182617188 784.9140625 c 0
 249.12109375 784.865234375 256.1171875 786.083007812 262.999023438 784.765625 c 0
 284.07421875 780.729492188 302.428710938 763.794921875 316.166992188 740.263671875 c 0
 329.758789062 716.983398438 332.983398438 702.416992188 342.223632812 674.5625 c 0
 345.622070312 660.204101562 349.485351562 646.067382812 352.418945312 631.486328125 c 0
 360.696289062 590.345703125 365.96484375 548.225585938 369.622070312 505.73046875 c 0
 369.177734375 501.044921875 368.8203125 496.330078125 368.565429688 491.583984375 c 0
 367.673828125 472.845703125 367.459960938 453.994140625 370.295898438 435.55078125 c 1
 374.229492188 438.755859375 l 1
 375.66015625 412.40625 376.750976562 386.030273438 377.797851562 359.767578125 c 0
 380.291992188 278.233398438 380.577148438 196.583007812 379.286132812 115 c 1
 400.581054688 131.02734375 l 1
 399.983398438 212.0078125 398.6953125 292.987304688 396.274414062 373.896484375 c 0
 395.235351562 400.485351562 394.162109375 427.184570312 392.774414062 453.8671875 c 1
 396.260742188 456.70703125 l 1
 392.583984375 473.987304688 392.75390625 492.171875 393.454101562 510.048828125 c 0
 395.217773438 547.522460938 403.169921875 581.877929688 412.393554688 616.529296875 c 0
 423.362304688 654.379882812 437.70703125 690.190429688 456.157226562 721.1640625 c 0
 459.967773438 727.560546875 464.140625 733.466796875 468.131835938 739.6171875 c 0
 477.006835938 750.903320312 479.987304688 755.377929688 486.364257812 761.822265625 c 1
 486.358398438 761.543945312 486.499023438 761.337890625 486.842773438 761.244140625 c 0
 491.82421875 759.881835938 496.381835938 766.435546875 501.331054688 768.03125 c 0
 515.041015625 772.452148438 517.451171875 770.518554688 531.286132812 768.603515625 c 0
 536.4296875 766.15625 541.767578125 764.46484375 546.717773438 761.263671875 c 0
 572.618164062 744.514648438 592.89453125 710.932617188 608.215820312 676.8046875 c 0
 613.358398438 665.349609375 617.708007812 653.15625 622.454101562 641.33203125 c 0
 649.90625 562.755859375 663.370117188 475.817382812 670.518554688 388.48828125 c 0
 672.176757812 368.227539062 673.143554688 347.857421875 674.456054688 327.541015625 c 0
 677.873046875 247.909179688 676.4140625 167.966796875 671.959960938 88.494140625 c 0
 669.665039062 47.5341796875 668.124023438 31.9970703125 664.825195312 -7.720703125 c 1
 685.303710938 7.306640625 l 1
 692.325195312 118.303710938 697.24609375 229.90234375 692.401367188 341.376953125 c 0
 691.166992188 361.809570312 690.26171875 382.29296875 688.696289062 402.67578125 c 0
 681.932617188 490.756835938 669.196289062 578.603515625 642.727539062 658.650390625 c 0
 638.12890625 670.744140625 633.922851562 683.182617188 628.930664062 694.9296875 c 0
 614.0078125 730.046875 594.219726562 764.829101562 568.364257812 782.96484375 c 0
 563.385742188 786.45703125 557.98828125 788.45703125 552.799804688 791.203125 c 0
 538.706054688 793.795898438 536.296875 795.913085938 522.211914062 791.8984375 c 0
 502.59765625 786.30859375 488.375 771.227539062 470.553710938 755.689453125 c 0
 465.786132812 751.532226562 461.307617188 746.649414062 456.967773438 741.568359375 c 0
 452.510742188 736.350585938 448.45703125 730.416992188 444.202148438 724.841796875 c 0
 440.2578125 718.607421875 436.14453125 712.599609375 432.370117188 706.138671875 c 0
 413.92578125 674.5625 399.48828125 638.333984375 388.368164062 600.078125 c 0
 386.428710938 592.87890625 384.540039062 585.640625 382.735351562 578.359375 c 1
 379.950195312 601.673828125 376.54296875 624.815429688 372.293945312 647.69140625 c 0
 369.533203125 662.55859375 365.873046875 677.030273438 362.663085938 691.69921875 c 0
 353.768554688 720.373046875 350.75390625 735.361328125 337.284179688 759.51171875 c 0
 323.544921875 784.146484375 304.874023438 801.975585938 283.260742188 806.5 c 0
 280.60546875 807.055664062 277.930664062 807.237304688 275.247070312 807.2578125 c 0
EndSplineSet
EndChar

StartChar: Capital
Encoding: 78 78 14
Width: 624
GlyphClass: 2
Flags: HMW
VStem: 174.635 26.9121
LayerCount: 2
Fore
SplineSet
603.90625 807.92578125 m 1
 575.640625 798.197265625 l 1
 544.147460938 751.044921875 513.673828125 703.485351562 484.818359375 655.353515625 c 0
 468.737304688 627.1953125 462.776367188 617.606445312 448.30859375 588.841796875 c 0
 425.522460938 543.537109375 406.650390625 497.112304688 391.96875 449.88671875 c 0
 388.591796875 438.30859375 384.94140625 426.774414062 381.837890625 415.15234375 c 0
 367.10546875 359.983398438 358.989257812 303.896484375 353.654296875 247.783203125 c 0
 352.879882812 237.486328125 352.145507812 227.186523438 351.478515625 216.884765625 c 1
 347.340820312 235.509765625 343.233398438 254.137695312 338.99609375 272.75390625 c 0
 321.807617188 348.290039062 304.561523438 424.0078125 273.666015625 498.0390625 c 0
 260.471679688 526.436523438 256.610351562 536.938476562 239.94140625 564.36328125 c 0
 217.798828125 600.791992188 188.772460938 635.58984375 154.166015625 668.248046875 c 0
 146.965820312 674.690429688 140 681.23046875 132.564453125 687.57421875 c 0
 111.275390625 705.735351562 87.4296875 722.727539062 61.85546875 738.716796875 c 1
 56.96875 736.876953125 l 2
 56.8154296875 737.052734375 56.6650390625 737.23046875 56.51171875 737.40625 c 2
 47.771484375 733.412109375 l 1
 18 722.201171875 l 2
 21.6728515625 720.416992188 25.28125 718.5859375 28.830078125 716.712890625 c 0
 34.767578125 710.630859375 40.181640625 704.25390625 45.439453125 697.8203125 c 0
 59.76953125 680.920898438 71.919921875 663.047851562 83.107421875 644.83984375 c 0
 102.9765625 610.234375 114.25390625 573.38671875 123.912109375 536.478515625 c 0
 133.903320312 491.9296875 138.454101562 446.716796875 138.958984375 401.53515625 c 0
 139.068359375 391.747070312 138.743164062 381.958007812 138.634765625 372.169921875 c 0
 137.908203125 313.669921875 129.29296875 255.55859375 118.33203125 197.740234375 c 0
 110.810546875 160.385742188 100.786132812 123.364257812 88.27734375 86.80859375 c 1
 118.626953125 97.931640625 l 1
 129.708007812 134.356445312 138.857421875 171.10546875 145.916015625 208.1171875 c 0
 156.19921875 266.005859375 164.645507812 324.141601562 165.546875 382.630859375 c 0
 165.659179688 392.448242188 165.965820312 402.266601562 165.8828125 412.083984375 c 0
 165.5 457.567382812 161.54296875 503.100585938 152.26953125 548.048828125 c 0
 143.353515625 584.875 132.944335938 621.661132812 114.576171875 656.513671875 c 1
 115.239257812 655.955078125 115.891601562 655.391601562 116.55859375 654.833984375 c 0
 152.348632812 622.899414062 182.041992188 588.514648438 204.796875 552.45703125 c 0
 221.79296875 525.5234375 226 514.684570312 239.5 486.7578125 c 0
 271.475585938 413.041992188 288.84765625 337.461914062 305.369140625 262.03125 c 0
 318.840820312 200.139648438 329.815429688 138.061523438 344.744140625 76.2890625 c 1
 382.734375 88.46875 l 2
 382.153320312 90.5322265625 381.590820312 92.59765625 381.01953125 94.662109375 c 2
 382.8984375 95.39453125 l 1
 382.564453125 107.671875 381.36328125 119.9140625 380.4765625 132.173828125 c 0
 377.247070312 174.171875 378.696289062 216.244140625 380.83984375 258.24609375 c 0
 384.79296875 314.071289062 392.772460938 369.834960938 407.37109375 424.654296875 c 0
 410.45703125 436.244140625 414.1015625 447.741210938 417.466796875 459.28515625 c 0
 432.055664062 506.397460938 450.82421875 552.723632812 473.671875 597.876953125 c 0
 488.056640625 626.305664062 494.43359375 636.51953125 510.45703125 664.33984375 c 0
 539.63671875 712.9375 570.889648438 760.791015625 603.90625 807.92578125 c 1
EndSplineSet
EndChar

StartChar: Capital
Encoding: 79 79 15
Width: 595
GlyphClass: 2
Flags: HMW
HStem: 258.838 16.4395 853.128 27.4736
VStem: 27 20.751 544.661 20.2373
LayerCount: 2
Fore
SplineSet
423.361328125 687.1171875 m 1
 413.16015625 702.258789062 400.221679688 713.674804688 386.67578125 722.3671875 c 0
 382.3359375 725.15234375 377.829101562 727.4140625 373.405273438 729.9375 c 0
 368.327148438 732.048828125 363.333007812 734.58984375 358.170898438 736.271484375 c 0
 331.625 744.91796875 303.54296875 744.657226562 276.74609375 738.46875 c 0
 268.529296875 736.571289062 260.453125 733.66015625 252.306640625 731.255859375 c 0
 225.163085938 721.745117188 199.59375 706.204101562 175.079101562 687.774414062 c 0
 172.865234375 686.110351562 170.955078125 683.772460938 168.890625 681.775390625 c 0
 135.576171875 649.5390625 151.829101562 666.578125 120.666992188 631.338867188 c 0
 93.0068359375 596.678710938 68.8740234375 556.395507812 56.7900390625 506.918945312 c 0
 48.6787109375 473.705078125 49.7587890625 464.977539062 47.7509765625 430.134765625 c 0
 48.458984375 416.430664062 48.478515625 402.625976562 49.8740234375 389.021484375 c 0
 55.9375 329.881835938 73.56640625 272.6328125 97.1201171875 222.7890625 c 0
 103.127929688 210.076171875 110.077148438 198.256835938 116.555664062 185.990234375 c 0
 123.807617188 174.939453125 130.596679688 163.278320312 138.311523438 152.838867188 c 0
 160.54296875 122.755859375 186.685546875 98.0087890625 215.544921875 81.5810546875 c 0
 240.263671875 67.509765625 246.977539062 67.6826171875 272.955078125 61 c 0
 282.631835938 60.42578125 292.305664062 58.7880859375 301.985351562 59.27734375 c 0
 333.723632812 60.8798828125 360.127929688 73.3076171875 388.341796875 92.484375 c 0
 391.571289062 94.6787109375 394.471679688 97.712890625 397.375 100.647460938 c 0
 406.646484375 110.015625 415.692382812 119.799804688 424.8515625 129.375976562 c 0
 460.961914062 172.1015625 490.78515625 223.90234375 511.787109375 282.836914062 c 0
 525.303710938 320.765625 527.078125 333.657226562 536.260742188 373.630859375 c 0
 546.573242188 431.193359375 551.52734375 491.158203125 544.661132812 550.123046875 c 0
 540.4921875 585.923828125 537.547851562 591.342773438 528.228515625 624.581054688 c 0
 523.735351562 635.180664062 519.80078125 646.267578125 514.75 656.380859375 c 0
 500.49609375 684.919921875 481.87890625 708.45703125 459.647460938 724.759765625 c 0
 441.314453125 738.205078125 436.850585938 738 417.16796875 744.709960938 c 0
 398.306640625 747.858398438 379.1640625 747.774414062 361.435546875 737.044921875 c 0
 356.930664062 734.318359375 346.274414062 732.4375 348.770507812 726.599609375 c 0
 357.90625 705.2265625 371.02734375 759.506835938 359.26171875 719.612304688 c 0
 359.58203125 714.79296875 359.112304688 709.747070312 360.221679688 705.155273438 c 0
 365.223632812 684.447265625 381.231445312 671.657226562 395.064453125 664.6015625 c 0
 402.392578125 660.86328125 410.1484375 658.958007812 417.690429688 656.135742188 c 1
 397.6171875 637.127929688 l 1
 389.716796875 639.884765625 381.611328125 641.705078125 373.916015625 645.400390625 c 0
 358.864257812 652.626953125 341.895507812 665.677734375 335.97265625 687.666015625 c 0
 334.610351562 692.723632812 334.918945312 698.354492188 334.391601562 703.69921875 c 0
 342.1953125 734.259765625 335.930664062 718.762695312 369.4375 749.6015625 c 0
 389.780273438 768.325195312 414.225585938 768.720703125 437.62109375 764.08984375 c 0
 457.234375 756.758789062 461.873046875 756.71875 480.092773438 742.837890625 c 0
 502.390625 725.8515625 521.024414062 701.736328125 535.2421875 672.6640625 c 0
 540.291015625 662.342773438 544.208984375 651.0546875 548.692382812 640.25 c 0
 558.004882812 606.2734375 560.8515625 601.17578125 564.8984375 564.64453125 c 0
 571.501953125 505.040039062 566.297851562 444.536132812 555.93359375 386.400390625 c 0
 546.80859375 346.485351562 544.861328125 332.892578125 531.50390625 294.9765625 c 0
 510.680664062 235.86328125 481.063476562 183.75 445.202148438 140.55078125 c 0
 436.177734375 130.921875 427.673828125 120.2890625 418.127929688 111.665039062 c 0
 395.446289062 91.17578125 368.055664062 68.6962890625 341.629882812 55.8935546875 c 0
 313.21875 42.1279296875 283.91796875 37.884765625 254.045898438 42.837890625 c 0
 228.017578125 49.94140625 221.240234375 49.8955078125 196.514648438 64.349609375 c 0
 157.173828125 87.3466796875 124.25390625 125.083984375 97.447265625 170.442382812 c 0
 90.9609375 182.8203125 84.025390625 194.774414062 77.9892578125 207.577148438 c 0
 54.3349609375 257.75 36.185546875 315.08203125 29.525390625 374.477539062 c 0
 27.9921875 388.15234375 27.841796875 402.0546875 27 415.842773438 c 0
 28.69140625 450.767578125 27.541015625 459.995117188 35.4091796875 493.3828125 c 0
 47.23828125 543.581054688 71.5625 584.384765625 99.4091796875 619.545898438 c 0
 107.153320312 628.37890625 114.665039062 637.614257812 122.641601562 646.044921875 c 0
 146.202148438 670.947265625 166.047851562 686.768554688 193.092773438 707.625976562 c 0
 209.517578125 720.29296875 227.975585938 731.819335938 245.740234375 740.486328125 c 0
 254.19140625 744.610351562 262.89453125 747.684570312 271.471679688 751.283203125 c 0
 279.775390625 753.720703125 288.008789062 756.669921875 296.383789062 758.596679688 c 0
 323.827148438 764.909179688 352.58984375 765.23046875 379.807617188 756.6171875 c 0
 385.118164062 754.936523438 390.263671875 752.387695312 395.491210938 750.2734375 c 0
 400.059570312 747.750976562 404.705078125 745.481445312 409.1953125 742.706054688 c 0
 423.40234375 733.924804688 436.729492188 722.372070312 448.465820312 708.290039062 c 1
 423.361328125 687.1171875 l 1
EndSplineSet
EndChar

StartChar: Capital
Encoding: 80 80 16
Width: 571
GlyphClass: 2
Flags: HMW
HStem: 541.002 13.7871<174 174> 959.564 14.2539
VStem: 154.617 20.1289<555 555> 558.572 21.707
LayerCount: 2
Fore
SplineSet
230.734375 777.818359375 m 0
 204.469726562 777.879882812 178.307617188 774.451171875 152.81640625 767.923828125 c 0
 140.307617188 764.098632812 126.015625 760.34375 114.20703125 754.40625 c 0
 87.943359375 741.200195312 61.75390625 726.65234375 39.578125 707.1484375 c 0
 30.3271484375 698.0390625 19.1640625 688.20703125 17 674.703125 c 1
 43.4296875 688.16796875 l 2
 43.48828125 688.442382812 43.5703125 688.70703125 43.63671875 688.978515625 c 1
 51.798828125 680.858398438 57.1640625 670.05859375 62.556640625 660.041015625 c 0
 79.609375 627.684570312 89.4736328125 592.352539062 98.662109375 557.150390625 c 0
 109.323242188 513.620117188 115.403320312 468.994140625 117.78125 424.255859375 c 0
 118.3046875 414.405273438 118.47265625 404.538085938 118.818359375 394.6796875 c 0
 118.990234375 382.9453125 118.922851562 371.20703125 118.6171875 359.474609375 c 1
 112.075195312 359.702148438 110.860351562 359.8046875 91.001953125 360.869140625 c 1
 71.009765625 346.478515625 l 1
 101.44140625 345.44140625 89.828125 345.76953125 118.123046875 345.193359375 c 1
 117.130859375 322.27734375 115.184570312 299.405273438 112.171875 276.66015625 c 0
 109.0546875 253.122070312 107.06640625 244.237304688 102.712890625 221.06640625 c 0
 96.220703125 191.409179688 88.3125 162.000976562 77.6953125 133.53515625 c 0
 73.1318359375 121.299804688 71.2685546875 117.354492188 66.31640625 105.916015625 c 0
 63.1884765625 99.013671875 59.9521484375 92.15234375 56.345703125 85.484375 c 0
 55.4345703125 83.7998046875 53.7138671875 81.9033203125 53.9765625 79.892578125 c 2
 80.638671875 93.4375 l 2
 80.9853515625 92.88671875 81.41796875 94.712890625 82.599609375 97.416015625 c 0
 85.45703125 103.951171875 88.1455078125 110.55859375 90.751953125 117.197265625 c 0
 94.3544921875 126.610351562 97.5556640625 134.75 100.83984375 144.392578125 c 0
 110.510742188 172.79296875 117.732421875 201.98828125 123.822265625 231.34375 c 0
 127.868164062 253.869140625 129.9921875 264.083984375 132.90625 286.94140625 c 0
 135.364257812 306.225585938 137.075195312 325.594726562 138.119140625 345.001953125 c 1
 197.205078125 344.611328125 256.465820312 345.965820312 314.78125 356.404296875 c 0
 342.352539062 362.229492188 352.272460938 363.4921875 378.935546875 372.404296875 c 0
 409.974609375 382.779296875 424.46875 390.944335938 455.4296875 408.65625 c 0
 463.861328125 413.479492188 472.0625 418.750976562 479.861328125 424.54296875 c 0
 487.157226562 429.961914062 493.700195312 436.326171875 500.619140625 442.21875 c 0
 514.965820312 458.962890625 519.974609375 462.701171875 529.8515625 482.3359375 c 0
 540.377929688 503.262695312 545.149414062 526.211914062 544.279296875 549.587890625 c 0
 543.987304688 557.424804688 542.517578125 565.174804688 541.63671875 572.966796875 c 0
 535.869140625 594.458007812 535.724609375 599.127929688 525.744140625 619.388671875 c 0
 509.853515625 651.645507812 485.734375 678.21875 457.2734375 699.89453125 c 0
 449.475585938 705.196289062 441.891601562 710.830078125 433.87890625 715.80078125 c 0
 393.2109375 741.029296875 347.983398438 758.546875 301.5078125 769.478515625 c 0
 278.44921875 773.809570312 272.234375 775.7109375 248.927734375 777.212890625 c 0
 242.86328125 777.603515625 236.795898438 777.803710938 230.734375 777.818359375 c 0
211.216796875 763.564453125 m 0
 217.306640625 763.616210938 223.403320312 763.478515625 229.5 763.1484375 c 0
 252.610351562 761.896484375 259.235351562 759.990234375 282.125 755.923828125 c 0
 328.592773438 745.47265625 373.850585938 728.348632812 414.40234375 703.126953125 c 0
 422.34375 698.1875 429.852539062 692.583984375 437.578125 687.3125 c 0
 465.690429688 665.798828125 489.444335938 639.435546875 504.943359375 607.40234375 c 0
 514.747070312 587.140625 514.728515625 582.833007812 520.23828125 561.361328125 c 0
 521.015625 553.65234375 522.379882812 545.98046875 522.572265625 538.234375 c 0
 523.146484375 515.176757812 518.16796875 492.581054688 507.583984375 472.056640625 c 0
 497.666015625 452.82421875 492.739257812 449.216796875 478.478515625 432.859375 c 0
 459.182617188 416.716796875 456.293945312 412.822265625 433.810546875 400.234375 c 0
 431.51953125 398.951171875 428.732421875 398.868164062 426.2734375 397.947265625 c 0
 416.345703125 394.227539062 406.6953125 389.766601562 396.669921875 386.318359375 c 0
 369.836914062 377.088867188 360.170898438 375.838867188 332.3984375 369.783203125 c 0
 268.700195312 357.922851562 203.802734375 357.381835938 139.26171875 358.771484375 c 0
 139.012695312 358.780273438 138.990234375 358.780273438 138.74609375 358.7890625 c 1
 139.328125 374.251953125 139.502929688 389.731445312 139.296875 405.203125 c 0
 138.963867188 415.09765625 138.786132812 425 138.298828125 434.888671875 c 0
 136.079101562 479.943359375 130.462890625 524.897460938 120.328125 568.876953125 c 0
 111.553710938 604.543945312 102.211914062 640.325195312 86.3515625 673.625 c 0
 80.228515625 686.091796875 74.1689453125 699.198242188 63.9609375 708.92578125 c 1
 47.98828125 698.892578125 l 2
 52.4970703125 705.984375 59.205078125 711.984375 64.974609375 717.642578125 c 0
 75.8251953125 727.075195312 87.4462890625 735.892578125 100.19140625 742.650390625 c 0
 102.379882812 743.811523438 91.765625 737.66015625 94.15625 738.3125 c 0
 100.587890625 740.068359375 106.346679688 743.737304688 112.603515625 746.041015625 c 0
 119.330078125 748.517578125 126.248046875 750.439453125 133.0703125 752.638671875 c 0
 158.579101562 759.579101562 184.829101562 763.341796875 211.216796875 763.564453125 c 0
EndSplineSet
EndChar

StartChar: Capital
Encoding: 81 81 17
Width: 578
GlyphClass: 2
Flags: HW
LayerCount: 2
Fore
SplineSet
387.587890625 758.712890625 m 0
 376.083007812 758.791992188 364.553710938 757.850585938 353.150390625 756.193359375 c 0
 345.849609375 755.131835938 338.619140625 753.54296875 331.353515625 752.216796875 c 0
 305.67578125 746.16796875 280.444335938 737.498046875 256.556640625 725.359375 c 0
 232.947265625 713.361328125 204.044921875 693.989257812 183.869140625 678.974609375 c 0
 174.778320312 672.208984375 166.564453125 664.103515625 157.912109375 656.66796875 c 0
 122.692382812 623.04296875 90.966796875 584.461914062 68.029296875 539.42578125 c 0
 52.3037109375 508.549804688 51.103515625 500.307617188 40.4296875 467.095703125 c 0
 37.888671875 454.442382812 34.5673828125 441.951171875 32.806640625 429.13671875 c 0
 27.5830078125 391.116210938 29.7373046875 352.625 38.548828125 315.46484375 c 0
 46.1103515625 283.575195312 51.2861328125 274.673828125 63.7421875 244.939453125 c 0
 69.5224609375 234.311523438 74.7548828125 223.293945312 81.083984375 213.0546875 c 0
 98.904296875 184.225585938 121.34375 157.8046875 148.330078125 139.26953125 c 0
 171.155273438 123.59375 178.889648438 122.823242188 204.216796875 114 c 0
 214.255859375 112.52734375 224.217773438 110.098632812 234.333984375 109.580078125 c 0
 266.634765625 107.924804688 297.97265625 116.4375 327.041015625 131.689453125 c 0
 340.651367188 138.830078125 354.303710938 148.0703125 367.580078125 157.759765625 c 1
 388.530273438 122.137695312 407.7265625 85.4541015625 430.703125 51.060546875 c 0
 435.80859375 43.4189453125 441.272460938 36.0234375 446.556640625 28.50390625 c 0
 466.87890625 1.673828125 490.565429688 -23.2861328125 521.4921875 -37.84375 c 0
 541.624023438 -47.3193359375 548.814453125 -47.41015625 570.619140625 -51.875 c 0
 609.91796875 -56.2421875 648.624023438 -49.3466796875 685.390625 -35.3671875 c 0
 695.05859375 -31.69140625 704.37109375 -27.1416015625 713.861328125 -23.029296875 c 2
 731.671875 -8.931640625 l 2
 722.249023438 -13.080078125 713.004882812 -17.66015625 703.40234375 -21.376953125 c 0
 667.1875 -35.39453125 629.04296875 -42.44140625 590.224609375 -38.22265625 c 0
 568.76953125 -33.890625 561.708984375 -33.7998046875 541.849609375 -24.61328125 c 0
 511.088867188 -10.3837890625 487.225585938 14.0087890625 466.818359375 40.453125 c 0
 461.501953125 47.908203125 455.982421875 55.22265625 450.869140625 62.818359375 c 0
 427.247070312 97.9111328125 407.99609375 135.6484375 387.0546875 172.345703125 c 1
 393.084960938 176.935546875 398.991210938 181.451171875 404.7109375 185.708984375 c 0
 441.309570312 219.372070312 473.45703125 259.040039062 496.828125 305.1015625 c 0
 511.384765625 333.791015625 513.090820312 342.547851562 523.275390625 373.056640625 c 0
 534.744140625 415.154296875 539.318359375 459.104492188 534.875 502.888671875 c 0
 532.286132812 528.405273438 530.30078125 532.506835938 524.12109375 556.71484375 c 0
 515.275390625 585.811523438 499.98046875 611.052734375 481.79296875 633.94921875 c 0
 475.93359375 641.327148438 466.815429688 651.494140625 460.4765625 658.677734375 c 0
 455.7421875 664.029296875 450.44140625 669.630859375 446.26953125 675.625 c 0
 444.96875 677.494140625 443.944335938 679.579101562 442.78125 681.556640625 c 2
 418.28515625 665.5703125 l 1
 424.078125 657.37890625 430.638671875 650.088867188 437.7734375 643.279296875 c 0
 445.553710938 635.111328125 452.461914062 628.107421875 459.78125 619.314453125 c 0
 478.223632812 597.161132812 493.592773438 572.392578125 502.75390625 543.833984375 c 0
 509.07421875 520.150390625 511.138671875 515.905273438 513.91796875 490.88671875 c 0
 518.71875 447.677734375 514.383789062 404.264648438 503.0859375 362.662109375 c 0
 492.987304688 332.401367188 491.344726562 323.817382812 476.85546875 295.380859375 c 0
 453.500976562 249.543945312 421.3125 210.18359375 384.65234375 176.927734375 c 0
 384.59765625 176.868164062 384.565429688 176.83203125 384.51171875 176.7734375 c 1
 383.622070312 178.318359375 382.735351562 179.866210938 381.837890625 181.40625 c 0
 361.899414062 214.75390625 341.640625 248.681640625 312.9140625 275.357421875 c 0
 309.682617188 277.9765625 306.576171875 280.760742188 303.21875 283.216796875 c 0
 293.350585938 290.435546875 282.06640625 295.072265625 270.548828125 298.923828125 c 1
 246.32421875 282.119140625 l 1
 258.239257812 279.46875 269.879882812 275.063476562 280.087890625 268.279296875 c 0
 283.516601562 266.000976562 286.698242188 263.373046875 290.00390625 260.919921875 c 0
 319.620117188 235.47265625 340.428710938 202.038085938 360.779296875 169.181640625 c 0
 362.7734375 165.885742188 364.741210938 162.57421875 366.69921875 159.255859375 c 0
 362.37890625 156.374023438 356.268554688 153.159179688 344.533203125 146.8828125 c 0
 315.893554688 131.56640625 284.969726562 122.866210938 253.01953125 124.1875 c 0
 242.997070312 124.602539062 233.112304688 126.907226562 223.158203125 128.267578125 c 0
 198.05078125 136.747070312 190.263671875 137.487304688 167.5625 152.740234375 c 0
 140.604492188 170.853515625 118.057617188 196.796875 100.20703125 225.314453125 c 0
 93.869140625 235.440429688 88.638671875 246.360351562 82.853515625 256.8828125 c 0
 70.41796875 286.572265625 65.4111328125 295.041015625 57.9140625 326.896484375 c 0
 49.2392578125 363.755859375 47.134765625 401.895507812 52.40234375 439.578125 c 0
 54.1796875 452.2890625 57.505859375 464.677734375 60.056640625 477.2265625 c 0
 70.8525390625 510.34375 71.98828125 518.3046875 87.859375 549.05859375 c 0
 111.05859375 594.01171875 143.041015625 632.420898438 178.5546875 665.775390625 c 0
 187.34765625 673.1953125 196.184570312 680.551757812 204.93359375 688.03515625 c 0
 207.301757812 690.060546875 209.31640625 692.63671875 211.90625 694.298828125 c 0
 242.786132812 714.110351562 276.592773438 727.619140625 311.474609375 735.703125 c 0
 318.561523438 736.962890625 325.61328125 738.484375 332.734375 739.482421875 c 0
 358.026367188 743.026367188 384.014648438 742.916015625 408.75 735.5703125 c 0
 421.251953125 731.142578125 433.854492188 726.290039062 444.630859375 717.7578125 c 1
 469.54296875 735.572265625 l 1
 457.622070312 743.25 444.6484375 748.279296875 431.51171875 752.708984375 c 0
 417.130859375 756.823242188 402.379882812 758.611328125 387.587890625 758.712890625 c 0
EndSplineSet
EndChar

StartChar: Capital
Encoding: 82 82 18
Width: 656
GlyphClass: 2
Flags: HMW
HStem: 939.242 15.2266
VStem: 134.85 20.0918
LayerCount: 2
Fore
SplineSet
156.755859375 795.46875 m 0
 130.953125 795.411132812 105.201171875 791.635742188 81.419921875 781.279296875 c 0
 60.14453125 769.57421875 37.7275390625 759.241210938 20 742.27734375 c 1
 32.87109375 747.609375 l 1
 41.7890625 733.142578125 49.0380859375 717.475585938 56.068359375 701.734375 c 0
 69.974609375 668.237304688 80.181640625 632.796875 87.166015625 596.583984375 c 0
 88.9892578125 587.130859375 90.4404296875 577.58984375 92.078125 568.091796875 c 0
 100.8984375 511.908203125 103.84375 454.686523438 102.412109375 397.658203125 c 0
 102.106445312 385.470703125 101.37109375 373.301757812 100.849609375 361.123046875 c 0
 97.8447265625 313.852539062 92.3916015625 266.763671875 84.7578125 220.18359375 c 0
 80.236328125 192.590820312 78.2666015625 184.291015625 72.748046875 157.35546875 c 0
 64.4052734375 121.69921875 68.6181640625 138.909179688 60.169921875 105.70703125 c 1
 82.66796875 118 l 1
 90.1943359375 150.842773438 86.390625 133.803710938 94.044921875 169.1328125 c 0
 99.1318359375 195.561523438 101.120117188 204.716796875 105.3671875 231.744140625 c 0
 112.6953125 278.379882812 118.051757812 325.458984375 120.94140625 372.736328125 c 0
 121.452148438 384.946289062 122.163085938 397.1484375 122.47265625 409.3671875 c 0
 123.926757812 466.76953125 121.461914062 524.37890625 113.271484375 581.072265625 c 0
 111.747070312 590.688476562 110.41015625 600.346679688 108.69921875 609.921875 c 0
 102.142578125 646.625976562 92.4765625 682.637695312 79.515625 717.029296875 c 0
 73.140625 732.802734375 66.4697265625 748.380859375 59.01171875 763.51953125 c 0
 60.912109375 764.944335938 62.8583984375 766.3125 64.8671875 767.599609375 c 0
 67.6279296875 769.369140625 76.017578125 774.487304688 73.33984375 772.595703125 c 0
 69.0791015625 769.584960938 64.517578125 767.024414062 60.107421875 764.23828125 c 1
 83.927734375 775.262695312 109.874023438 779.764648438 135.994140625 780.2421875 c 0
 142.383789062 780.359375 148.774414062 780.057617188 155.1640625 779.96484375 c 0
 188.84765625 778.020507812 221.916015625 769.516601562 252.015625 754.158203125 c 0
 258.017578125 751.095703125 263.747070312 747.52734375 269.61328125 744.2109375 c 0
 292.393554688 729.477539062 313.376953125 711.688476562 328.931640625 689.2421875 c 0
 339.282226562 674.306640625 340.211914062 670 347.45703125 653.4453125 c 0
 356.239257812 627.665039062 358.546875 600.579101562 352.640625 573.875 c 0
 348.666992188 555.908203125 345.978515625 552.327148438 338.3828125 535.609375 c 0
 321.3828125 505.189453125 299.392578125 483.008789062 269.830078125 464.80078125 c 0
 267.3125 463.25 274.673828125 468.1953125 277.095703125 469.892578125 c 1
 263.256835938 463.90234375 248.502929688 459.8515625 233.65234375 461.23828125 c 1
 228.69140625 466.276367188 223.09765625 470.606445312 216.50390625 473.6484375 c 0
 215.171875 474.024414062 213.776367188 475.329101562 212.505859375 474.77734375 c 0
 202.240234375 470.321289062 178.370117188 463.264648438 185.587890625 454.712890625 c 0
 187.51171875 452.43359375 190.673828125 451.025390625 193.140625 449.6328125 c 0
 195.302734375 448.853515625 197.415039062 447.91796875 199.626953125 447.294921875 c 0
 203.576171875 446.18359375 207.526367188 445.478515625 211.46875 445.1015625 c 0
 218.995117188 437.704101562 225.05859375 428.516601562 230.85546875 420.140625 c 0
 246.70703125 395.52734375 258.657226562 368.723632812 271.958984375 342.716796875 c 0
 275.384765625 336.018554688 278.93359375 329.383789062 282.421875 322.716796875 c 0
 304.52734375 281.122070312 332.374023438 242.928710938 364.49609375 208.515625 c 0
 372.090820312 200.379882812 380.096679688 192.63671875 387.896484375 184.697265625 c 0
 434.305664062 140.22265625 485.264648438 100.305664062 540.51953125 67.34765625 c 0
 553.051757812 59.8720703125 565.995117188 53.1083984375 578.732421875 45.98828125 c 0
 633.3125 20.0458984375 605.416015625 32.08984375 662.455078125 9.9296875 c 1
 678.369140625 20.609375 l 1
 621.73046875 42.8095703125 649.420898438 30.73828125 595.26953125 56.751953125 c 0
 582.65234375 63.904296875 569.8203125 70.6884765625 557.41796875 78.20703125 c 0
 502.725585938 111.361328125 452.540039062 151.641601562 406.8125 196.25390625 c 0
 399.1328125 204.219726562 391.236328125 211.981445312 383.7734375 220.150390625 c 0
 352.181640625 254.729492188 325.124023438 293.194335938 303.869140625 334.955078125 c 0
 300.512695312 341.677734375 297.092773438 348.369140625 293.80078125 355.123046875 c 0
 280.9375 381.513671875 269.388671875 408.634765625 254.08203125 433.759765625 c 0
 250.825195312 438.77734375 247.5078125 443.931640625 243.923828125 448.880859375 c 1
 248.262695312 450.203125 252.553710938 451.786132812 256.775390625 453.58203125 c 0
 274.30859375 463.33984375 292.6875 472.10546875 308.7265625 484.37109375 c 0
 330.442382812 500.9765625 348.303710938 521.966796875 361.20703125 546.052734375 c 0
 368.712890625 563.015625 371.469726562 566.822265625 375.30078125 585.013671875 c 0
 381.01953125 612.163085938 378.341796875 639.6796875 369.421875 665.8046875 c 0
 362.033203125 682.635742188 361.096679688 686.967773438 350.57421875 702.16015625 c 0
 334.850585938 724.861328125 313.690429688 742.904296875 290.755859375 757.9609375 c 0
 284.844726562 761.33203125 279.069335938 764.952148438 273.0234375 768.07421875 c 0
 242.8359375 783.665039062 209.66015625 792.4765625 175.826171875 794.908203125 c 0
 169.469726562 795.094726562 163.115234375 795.483398438 156.755859375 795.46875 c 0
211.330078125 471.775390625 m 0
 211.767578125 471.754882812 212.092773438 471.645507812 211.85546875 471.484375 c 0
 211.30859375 471.114257812 210.748046875 470.762695312 210.193359375 470.404296875 c 1
 209.989257812 470.791992188 209.856445312 471.275390625 210.1328125 471.53125 c 0
 210.34375 471.7265625 210.892578125 471.795898438 211.330078125 471.775390625 c 0
EndSplineSet
EndChar

StartChar: Capital
Encoding: 83 83 19
Width: 437
GlyphClass: 2
Flags: HMW
HStem: 949.361 16.5322
VStem: 395.112 21.9072
LayerCount: 2
Fore
SplineSet
390.014648438 734.77734375 m 1
 384.025390625 740.435546875 376.663085938 744.395507812 369.327148438 748.010742188 c 0
 354.774414062 754.795898438 338.889648438 757.493164062 323.09765625 759.543945312 c 0
 305.6328125 761.078125 287.84765625 760.1875 270.916015625 755.361328125 c 0
 267.46875 754.37890625 264.126953125 753.060546875 260.732421875 751.91015625 c 0
 257.611328125 750.415039062 248.415039062 745.627929688 251.37109375 747.42578125 c 0
 256.274414062 750.409179688 260.970703125 754.31640625 266.592773438 755.475585938 c 0
 269.791015625 756.134765625 261.479492188 751.384765625 259.206054688 749.041015625 c 0
 251.05078125 740.635742188 248.59765625 733.766601562 244.821289062 723.018554688 c 0
 244.188476562 719.470703125 243.265625 715.962890625 242.922851562 712.375976562 c 0
 240.693359375 689.080078125 248.6953125 665.348632812 255.888671875 643.598632812 c 0
 270.6953125 603.657226562 286.96484375 564.267578125 303.249023438 524.91015625 c 0
 319.778320312 486.029296875 336.810546875 447.334960938 351.358398438 407.650390625 c 0
 354.389648438 399.379882812 357.217773438 391.036132812 360.147460938 382.729492188 c 0
 373.014648438 343.390625 384.348632812 303.083007812 387.94140625 261.682617188 c 0
 388.578125 254.352539062 388.66015625 246.985351562 389.01953125 239.63671875 c 0
 388.782226562 211.74609375 383.271484375 184.169921875 369.697265625 159.5703125 c 0
 360.852539062 143.541992188 357.228515625 140.872070312 345.282226562 127.208984375 c 0
 340.282226562 122.875976562 335.573242188 118.1796875 330.280273438 114.208984375 c 0
 325.06640625 110.297851562 319.549804688 106.767578125 313.841796875 103.622070312 c 0
 290.077148438 90.525390625 279.551757812 82.6513671875 255.837890625 78.8681640625 c 0
 238.942382812 76.1728515625 232.7890625 77.5830078125 215.737304688 78.74609375 c 0
 168.7109375 86.21484375 125.623046875 107.38671875 83.720703125 129.009765625 c 0
 67.501953125 138.080078125 59.125 142.393554688 43.6708984375 152.470703125 c 0
 37.6669921875 156.384765625 31.890625 160.63671875 26 164.720703125 c 1
 46.916015625 178.044921875 l 1
 65.2451171875 165.077148438 83.7841796875 152.431640625 103.846679688 142.21484375 c 0
 145.686523438 120.59375 188.892578125 99.7578125 236.0703125 93.3388671875 c 0
 253.252929688 92.5078125 259.034179688 91.232421875 275.969726562 94.28125 c 0
 282.204101562 95.4033203125 287.999023438 99.0830078125 294.333984375 99.171875 c 0
 296.393554688 99.201171875 288.42578125 93.6474609375 290.30859375 94.482421875 c 0
 302.647460938 99.9521484375 311.999023438 108.984375 322.163085938 117.47265625 c 0
 334.20703125 130.794921875 337.93359375 133.470703125 346.915039062 149.201171875 c 0
 360.72265625 173.384765625 366.477539062 200.740234375 367.112304688 228.359375 c 0
 366.861328125 235.6953125 366.8984375 243.045898438 366.358398438 250.366210938 c 0
 363.309570312 291.71875 352.337890625 332.06640625 339.510742188 371.315429688 c 0
 336.57421875 379.594726562 333.745117188 387.9140625 330.700195312 396.154296875 c 0
 316.067382812 435.756835938 298.879882812 474.341796875 282.145507812 513.081054688 c 0
 265.551757812 552.29296875 248.8359375 591.47265625 233.204101562 631.078125 c 0
 225.36328125 653.09375 216.888671875 676.546875 218.370117188 700.35546875 c 0
 218.599609375 704.046875 219.42578125 707.676757812 219.954101562 711.336914062 c 0
 222.48046875 719.383789062 223.162109375 723.311523438 227.595703125 730.551757812 c 0
 239.4765625 749.952148438 262.424804688 759.760742188 282.370117188 768.6953125 c 0
 285.794921875 769.760742188 289.173828125 770.984375 292.643554688 771.893554688 c 0
 309.926757812 776.420898438 327.970703125 777.225585938 345.697265625 775.521484375 c 0
 361.911132812 773.416992188 378.20703125 770.611328125 393.18359375 763.73828125 c 0
 400.86328125 760.016601562 408.342773438 755.87890625 415.123046875 750.658203125 c 1
 390.014648438 734.77734375 l 1
EndSplineSet
EndChar

StartChar: Capital
Encoding: 84 84 20
Width: 541
GlyphClass: 2
Flags: HMW
HStem: 259.012 16.9355 909.521 14.7422 942.293 17.0684
VStem: 314.371 20.7891
LayerCount: 2
Fore
SplineSet
131.453125 773.1875 m 0
 117.458007812 773.239257812 103.940429688 771.8515625 89.724609375 767.361328125 c 0
 67.3603515625 760.252929688 47.0986328125 749.493164062 28 735.560546875 c 1
 50.958984375 744.828125 l 2
 48.82421875 743.46484375 46.8759765625 742.225585938 44.130859375 740.451171875 c 0
 41.873046875 738.9921875 48.927734375 742.883789062 51.373046875 744 c 0
 59.0859375 747.521484375 59.640625 747.490234375 67.75 750.29296875 c 0
 80.4130859375 754.314453125 93.509765625 756.684570312 106.794921875 757.1015625 c 0
 115.529296875 757.375 120.006835938 756.953125 128.8046875 756.498046875 c 0
 156.114257812 754.424804688 182.54296875 746.969726562 208.927734375 740.09375 c 0
 223.926757812 736.064453125 238.935546875 732.000976562 254.04296875 728.3671875 c 1
 253.40625 728 l 1
 255.325195312 716.767578125 258.077148438 705.733398438 260.943359375 694.748046875 c 0
 268.123046875 667.29296875 273.629882812 639.397460938 278.36328125 611.345703125 c 0
 286.75 562.041992188 287.590820312 511.887695312 287.37109375 461.923828125 c 0
 286.517578125 418.672851562 283.849609375 375.44140625 279.03125 332.48828125 c 0
 275.932617188 304.868164062 274.177734375 295.326171875 269.97265625 268.064453125 c 0
 263.786132812 231.884765625 255.69140625 195.80078125 241.1015625 162.373046875 c 0
 232.913085938 143.611328125 230.942382812 141.786132812 220.48828125 125.060546875 c 0
 211.8984375 112.887695312 201.682617188 102.833007812 190.203125 94.275390625 c 0
 190.131835938 94.3544921875 189.995117188 94.40625 189.771484375 94.419921875 c 0
 184.78515625 94.7314453125 180.515625 90.3251953125 175.7421875 88.73828125 c 0
 171.147460938 87.2109375 166.39453125 86.306640625 161.720703125 85.091796875 c 0
 144.005859375 82.9169921875 152.7578125 83.255859375 135.46875 83.947265625 c 1
 113.681640625 67.01171875 l 1
 131.467773438 66.0029296875 122.46875 65.7900390625 140.673828125 67.771484375 c 0
 145.451171875 68.92578125 150.3046875 69.759765625 155.005859375 71.234375 c 0
 174.537109375 77.361328125 186.673828125 86.328125 205.90625 98.59765625 c 0
 220.854492188 108.133789062 233.25 121.159179688 243.685546875 136.0390625 c 0
 253.7109375 152.901367188 255.545898438 154.645507812 263.326171875 173.44921875 c 0
 277.182617188 206.938476562 284.61328125 242.904296875 290.43359375 278.87890625 c 0
 291.987304688 289.421875 293.665039062 299.944335938 295.09375 310.5078125 c 0
 302.390625 364.438476562 306.5625 418.872070312 308.16015625 473.337890625 c 0
 308.809570312 523.81640625 308.641601562 574.50390625 301.3046875 624.5078125 c 0
 297.0078125 652.916015625 291.828125 681.151367188 285.48828125 709.1171875 c 0
 284.529296875 713.444335938 283.584960938 717.786132812 282.7265625 722.14453125 c 1
 292.233398438 720.338867188 299.03515625 719.345703125 310.53125 717.521484375 c 0
 340.513671875 713.440429688 370.895507812 711.7421875 401.1484375 712.83203125 c 0
 406.924804688 713.040039062 412.688476562 713.494140625 418.458984375 713.82421875 c 0
 441.590820312 716.162109375 465.622070312 717.602539062 487.630859375 725.8515625 c 0
 490.793945312 727.037109375 493.79296875 728.6171875 496.875 730 c 2
 518.396484375 747.13671875 l 2
 515.30859375 745.602539062 512.319335938 743.8515625 509.1328125 742.53515625 c 0
 487.326171875 733.526367188 462.40234375 731.639648438 439.224609375 729.10546875 c 0
 433.452148438 728.728515625 427.685546875 728.225585938 421.90625 727.974609375 c 0
 391.737304688 726.663085938 361.4140625 728.209960938 331.50390625 732.263671875 c 0
 317.846679688 734.407226562 309.848632812 735.5 296.3125 738.267578125 c 0
 290.762695312 739.40234375 285.233398438 740.633789062 279.720703125 741.9375 c 0
 279.682617188 742.333984375 279.633789062 742.728515625 279.599609375 743.125 c 2
 278.1875 742.310546875 l 1
 262.2109375 746.12890625 246.3671875 750.532226562 230.5625 754.96875 c 0
 204.33984375 762.081054688 178.107421875 769.809570312 150.9453125 772.380859375 c 0
 144.276367188 772.84375 137.814453125 773.1640625 131.453125 773.1875 c 0
EndSplineSet
EndChar

StartChar: Capital
Encoding: 85 85 21
Width: 487
GlyphClass: 2
Flags: HMW
VStem: 210.792 20.6621 487.435 16.2969
LayerCount: 2
Fore
SplineSet
-83.6279296875 778.640625 m 0
 -84.556640625 778.602539062 -86.2666015625 774.803710938 -97.8916015625 765.138671875 c 1
 -114.283203125 758.163085938 -110.955078125 762.259765625 -105.682617188 758.9453125 c 1
 -105.73046875 758.909179688 -105.766601562 758.879882812 -105.813476562 758.84375 c 0
 -106.286132812 758.485351562 -105.19921875 757.826171875 -104.844726562 757.349609375 c 0
 -104.255859375 756.556640625 -103.608398438 755.809570312 -102.989257812 755.0390625 c 0
 -92.0947265625 744.475585938 -79.3310546875 736.073242188 -66.4072265625 728.232421875 c 0
 -52.587890625 720.296875 -37.81640625 714.0703125 -22.3720703125 710.08203125 c 0
 -11.91015625 707.380859375 -7.8515625 707.029296875 2.8603515625 705.376953125 c 0
 20.7783203125 703.370117188 38.916015625 703.352539062 56.8466796875 705.251953125 c 0
 66.5439453125 706.279296875 73.6484375 707.620117188 83.2431640625 709.23046875 c 0
 94.9765625 711.2890625 106.481445312 714.314453125 117.756835938 718.056640625 c 1
 117.161132812 713.774414062 116.447265625 709.502929688 115.655273438 705.24609375 c 0
 112.327148438 689.903320312 109.303710938 674.51171875 106.176757812 659.13671875 c 0
 99.328125 627.86328125 91.1875 596.842773438 82.7529296875 565.880859375 c 0
 74.869140625 537.39453125 66.8017578125 508.927734375 60.5576171875 480.11328125 c 0
 55.791015625 458.120117188 55.3974609375 454.3515625 51.5498046875 431.9609375 c 0
 46.5029296875 398.31640625 42.845703125 364.416015625 42.9482421875 330.44140625 c 0
 43.013671875 308.513671875 43.9404296875 302.849609375 45.7919921875 281.080078125 c 0
 49.3662109375 251.365234375 55.591796875 221.650390625 67.7587890625 193.666015625 c 0
 74.8310546875 177.3984375 77.744140625 173.86328125 87.0751953125 158.783203125 c 0
 104.025390625 135.987304688 124.038085938 113.205078125 151.827148438 100.119140625 c 0
 156.133789062 98.0908203125 160.7890625 96.7060546875 165.270507812 95 c 0
 175.926757812 93.13671875 179.912109375 91.427734375 190.733398438 93.41796875 c 0
 205.426757812 96.12109375 229.372070312 111.37890625 236.229492188 115.943359375 c 0
 243.391601562 120.7109375 250.439453125 132.8828125 254.645507812 139.166015625 c 0
 257.301757812 144.487304688 260.254882812 149.69921875 262.614257812 155.12890625 c 0
 267.9921875 167.51171875 272.557617188 182.166992188 276.155273438 194.953125 c 0
 283.2421875 220.145507812 288.513671875 245.684570312 293.870117188 271.1953125 c 0
 302.719726562 317.306640625 312.21875 363.30859375 322.329101562 409.208984375 c 1
 322.362304688 408.48046875 322.40234375 407.751953125 322.434570312 407.0234375 c 0
 327.069335938 339.989257812 336.311523438 272.791992188 356.629882812 207.93359375 c 0
 360.397460938 195.90625 364.971679688 184.08984375 369.143554688 172.16796875 c 0
 381.520507812 141.8046875 395.736328125 111.622070312 416.098632812 84.662109375 c 0
 421.450195312 77.576171875 427.837890625 71.1474609375 433.708007812 64.390625 c 1
 453.448242188 74.83984375 l 1
 447.333007812 81.369140625 440.67578125 87.5302734375 435.102539062 94.4296875 c 0
 413.893554688 120.681640625 399.248046875 150.551757812 386.458007812 180.583984375 c 0
 374.473632812 213.459960938 371.244140625 219.78515625 362.602539062 254.005859375 c 0
 349.2578125 306.846679688 342.725585938 360.91015625 339.815429688 414.9296875 c 0
 339.454101562 427.658203125 338.811523438 440.3828125 338.731445312 453.115234375 c 0
 338.66796875 463.092773438 338.783203125 473.077148438 339.077148438 483.05859375 c 0
 351.446289062 536.34765625 365.771484375 589.260742188 378.985351562 642.38671875 c 0
 381.780273438 655.591796875 385.740234375 668.618164062 388.120117188 681.896484375 c 0
 388.467773438 683.837890625 388.901367188 685.791992188 388.862304688 687.7578125 c 0
 388.842773438 688.715820312 388.958984375 690.852539062 387.946289062 690.515625 c 0
 377.942382812 687.193359375 368.797851562 682.115234375 359.225585938 677.9140625 c 1
 348.544921875 659.045898438 341.543945312 638.748046875 336.481445312 618.16796875 c 0
 334.708984375 610.963867188 333.340820312 603.685546875 331.770507812 596.4453125 c 0
 324.25 555.81640625 320.9140625 514.658203125 320.565429688 473.498046875 c 0
 319.723632812 469.837890625 318.874023438 466.1796875 318.043945312 462.517578125 c 0
 302.564453125 395.989257812 287.864257812 329.327148438 273.786132812 262.5546875 c 0
 267.97265625 236.868164062 262.27734375 211.1484375 254.526367188 185.84765625 c 0
 250.567382812 172.926757812 245.586914062 158.301757812 239.706054688 145.873046875 c 0
 237.1328125 140.435546875 233.932617188 135.249023438 231.045898438 129.9375 c 0
 227.896484375 125.626953125 225.125 121.077148438 221.596679688 117.00390625 c 0
 218.58203125 113.524414062 209.8828125 111.438476562 211.282226562 107.388671875 c 1
 201.575195312 105.251953125 197.499023438 106.708007812 187.264648438 108.033203125 c 0
 182.760742188 109.578125 178.092773438 110.786132812 173.754882812 112.666015625 c 0
 145.69921875 124.82421875 125.563476562 147.286132812 108.575195312 169.736328125 c 0
 99.2470703125 184.44921875 96.171875 188.180664062 89.0263671875 204.064453125 c 0
 76.595703125 231.696289062 70.1025390625 261.116210938 66.4541015625 290.58203125 c 0
 64.5810546875 312.126953125 63.630859375 317.981445312 63.5302734375 339.68359375 c 0
 63.3720703125 373.59375 67.0595703125 407.432617188 72.3369140625 440.984375 c 0
 73.83984375 449.212890625 75.220703125 457.4609375 76.8447265625 465.671875 c 0
 84.1435546875 502.577148438 94.2666015625 538.969726562 104.795898438 575.23828125 c 0
 113.83984375 606.623046875 122.790039062 638.032226562 130.643554688 669.671875 c 0
 134.178710938 685.237304688 137.622070312 700.818359375 141.344726562 716.349609375 c 0
 142.422851562 721.494140625 143.331054688 726.665039062 144.321289062 731.822265625 c 2
 156.645507812 741.541015625 l 2
 152.9140625 739.930664062 149.14453125 738.415039062 145.350585938 736.97265625 c 1
 145.372070312 737.076171875 145.390625 737.1796875 145.413085938 737.283203125 c 2
 140.768554688 735.287109375 l 2
 129.00390625 731.064453125 116.955078125 727.671875 104.639648438 725.337890625 c 0
 95.6328125 723.756835938 87.404296875 722.180664062 78.3115234375 721.12109375 c 0
 60.564453125 719.052734375 42.59375 718.991210938 24.8271484375 720.837890625 c 0
 14.3154296875 722.401367188 10.1923828125 722.749023438 -0.0810546875 725.322265625 c 0
 -15.2861328125 729.130859375 -29.8369140625 735.182617188 -43.3466796875 743.115234375 c 0
 -54.26953125 749.944335938 -64.99609375 757.30078125 -74.2158203125 766.341796875 c 1
 -70.4560546875 768.7734375 l 2
 -73.271484375 770.639648438 -76.51953125 771.828125 -79.2392578125 773.830078125 c 0
 -82.646484375 776.791992188 -82.962890625 778.66796875 -83.6279296875 778.640625 c 0
224.452148438 112.255859375 m 0
 224.533203125 112.275390625 223.715820312 111.922851562 222.846679688 111.546875 c 1
 223.143554688 111.703125 223.434570312 111.844726562 223.709960938 111.958984375 c 0
 224.173828125 112.151367188 224.40625 112.244140625 224.452148438 112.255859375 c 0
EndSplineSet
EndChar

StartChar: Capital
Encoding: 86 86 22
Width: 534
GlyphClass: 2
Flags: HMW
VStem: 55 49.4902 129.812 19.4609 138.277 17.6484
LayerCount: 2
Fore
SplineSet
521.359375 758.201171875 m 1xc0
 494.771484375 748.62109375 l 1
 454.736328125 703.169921875 415.493164062 657.216796875 379.44921875 609.45703125 c 0
 354.91015625 576.305664062 341.375976562 558.754882812 318.375 524.70703125 c 0
 280.6796875 468.907226562 247.46875 411.073242188 217.40625 352.146484375 c 0
 184.799804688 287.52734375 152.453125 222.787109375 122.373046875 157.3125 c 0
 118.240234375 147.887695312 114.206054688 138.436523438 110.2734375 128.958984375 c 1xc0
 112.571289062 196.353515625 115.197265625 263.740234375 116.92578125 331.1484375 c 0
 117.616210938 400.271484375 117.051757812 469.653320312 104.453125 538.068359375 c 0
 102.609375 547.818359375 100.952148438 557.598632812 98.919921875 567.318359375 c 0
 90.5966796875 607.129882812 78.822265625 646.329101562 65.490234375 685.017578125 c 0
 57.7177734375 706.987304688 49.455078125 728.813476562 41.64453125 750.76953125 c 1
 16 738 l 1
 26.3740234375 717.170898438 35.0205078125 695.70703125 43.529296875 674.23046875 c 0
 58.060546875 636.162109375 70.2685546875 597.307617188 79.150390625 557.865234375 c 0
 81.318359375 548.23828125 83.103515625 538.546875 85.080078125 528.88671875 c 0
 93.3232421875 485.251953125 97.3330078125 441.090820312 98.78515625 396.88671875 c 0
 99.7607421875 367.178710938 99.4130859375 352.989257812 99.27734375 323.14453125 c 0xa0
 97.86328125 250.735351562 94.5966796875 178.361328125 90.8125 106.0234375 c 2
 88.990234375 76.755859375 l 1
 90.203125 77.30078125 l 2
 89.814453125 76.2216796875 89.416015625 75.1455078125 89.03125 74.064453125 c 2
 124.302734375 88.18359375 l 1
 130.859375 115.73828125 141.356445312 142.435546875 152.22265625 168.96875 c 0
 180.239257812 233.83984375 210.981445312 297.872070312 242.212890625 361.701171875 c 0
 271.364257812 420.423828125 304.01953125 477.9609375 341.421875 533.34375 c 0
 364.620117188 567.693359375 377.852539062 584.653320312 402.73828125 618.048828125 c 0
 439.506835938 666.385742188 479.942382812 712.610351562 521.359375 758.201171875 c 1xc0
EndSplineSet
EndChar

StartChar: Capital
Encoding: 88 88 23
Width: 420
GlyphClass: 2
Flags: HMW
HStem: 906.371 45.0078 907.176 18.7695
VStem: 148.348 26.1934<276.193 290.199> 410.24 23.6855<265.629 277.139>
LayerCount: 2
Fore
SplineSet
2.0625 772.861328125 m 4xb0
 -6.16015625 772.986328125 -4.5146484375 770.06640625 -35.6953125 756.74609375 c 4
 -36.8037109375 756.272460938 -34.591796875 755.26171875 -33.826171875 754.59375 c 4
 -30.693359375 751.861328125 -25.337890625 749.711914062 -21.10546875 747.69140625 c 4
 -2.169921875 739.901367188 19.326171875 734.163085938 41.75390625 730.82421875 c 4
 47.517578125 729.965820312 53.40234375 729.424804688 59.2265625 728.724609375 c 4
 66.1044921875 728.01953125 72.986328125 727.59375 79.865234375 727.37109375 c 6xb0
 77.009765625 725.791015625 l 5
 90.5751953125 713.342773438 101.6875 699.020507812 112.328125 684.412109375 c 4
 141.482421875 642.849609375 165.021484375 598.2578125 188.689453125 553.900390625 c 4
 206.307617188 520.0703125 222.837890625 485.7109375 237.146484375 450.5625 c 4
 234.521484375 446.951171875 231.892578125 443.340820312 229.26953125 439.728515625 c 4
 187.137695312 379.380859375 145.625976562 318.278320312 113.63671875 251.775390625 c 4
 95.8857421875 213.764648438 78.9912109375 175.313476562 65.5859375 135.517578125 c 4
 61.4609375 123.237304688 55.9248046875 110.423828125 57.34765625 97.193359375 c 5
 83.541015625 111.19921875 l 5
 81.5810546875 123.3515625 86.822265625 135.697265625 90.234375 147.13671875 c 4
 102.021484375 186.416992188 118.056640625 224.180664062 134.927734375 261.4921875 c 4
 159.9375 314.365234375 190.48828125 364.32421875 223.201171875 412.73046875 c 4
 229.249023438 421.6796875 235.436523438 430.534179688 241.607421875 439.3984375 c 5
 244.083007812 433.07421875 246.491210938 426.725585938 248.80859375 420.34765625 c 4
 261.10546875 386.5078125 263.83984375 375.033203125 273.96875 340.353515625 c 4
 296.782226562 257.077148438 308.583984375 171.81640625 319.240234375 86.62890625 c 5
 342.92578125 98.138671875 l 5
 331.15625 183.23046875 319.075195312 268.463867188 296.947265625 351.900390625 c 4
 287.192382812 386.180664062 284.142578125 398.895507812 272.3828125 432.421875 c 4
 268.512695312 443.458984375 264.404296875 454.418945312 260.099609375 465.310546875 c 5
 297.405273438 516.840820312 335.533203125 567.869140625 377.306640625 615.88671875 c 4
 385.341796875 625.122070312 393.674804688 634.090820312 401.859375 643.193359375 c 4
 426.268554688 669.040039062 451.440429688 694.420898438 479.50390625 716.3515625 c 4
 489.900390625 724.475585938 492.434570312 725.840820312 502.751953125 732.54296875 c 6
 477.501953125 722.66015625 l 5
 441.864257812 698.043945312 411.573242188 666.772460938 382.37109375 634.98828125 c 4
 374.416992188 625.959960938 366.3203125 617.0546875 358.505859375 607.904296875 c 4
 322.314453125 565.522460938 288.712890625 521.026367188 255.771484375 476.08203125 c 5
 243.158203125 506.94921875 229.012695312 537.280273438 214.0703125 567.240234375 c 4
 191.08984375 612.088867188 168.307617188 657.126953125 141.185546875 700.001953125 c 4
 134.852539062 709.63671875 128.236328125 719.060546875 121.130859375 728.17578125 c 5
 130.6328125 728.763671875 140.115234375 729.560546875 149.5703125 730.42578125 c 6
 186.9921875 746.9453125 l 5x70
 157.420898438 743.991210938 127.564453125 741.59375 97.619140625 744.439453125 c 4
 91.9453125 745.088867188 86.208984375 745.57421875 80.59765625 746.390625 c 4
 59.0361328125 749.528320312 38.3740234375 755.125 20.66796875 763 c 4
 17 764.9296875 14.75 766.31640625 12.9375 767.45703125 c 6
 24.44140625 772.3671875 l 6
 19.5810546875 772.311523438 14.71875 772.328125 9.857421875 772.37890625 c 4
 6.384765625 772.641601562 3.9609375 772.833007812 2.0625 772.861328125 c 4xb0
-30.216796875 754.8984375 m 5
 -30.82421875 754.69140625 -31.392578125 754.4921875 -32.021484375 754.28125 c 4
 -32.419921875 754.147460938 -31.41796875 754.689453125 -31.1171875 754.892578125 c 4
 -30.81640625 754.895507812 -30.5166015625 754.895507812 -30.216796875 754.8984375 c 5
EndSplineSet
EndChar

StartChar: Capital
Encoding: 89 89 24
Width: 501
GlyphClass: 2
Flags: HMW
HStem: 337.533 16.7324 928.442 20G<210.523 210.523> 961.911 21G<226.398 226.398>
VStem: 162.699 22.1875 177.742 24.5859 581.742 35.0879
LayerCount: 2
Fore
SplineSet
-59.337890625 711.38671875 m 1xf4
 -85 695.744140625 l 1
 -80.2568359375 689.111328125 -74.716796875 683.448242188 -68.345703125 678.580078125 c 0
 -58.037109375 671.499023438 -46.474609375 667.090820312 -34.595703125 663.994140625 c 0
 -19.767578125 660.516601562 -5.4892578125 661.474609375 9.34375 664.078125 c 0
 24.58984375 666.908203125 39.12890625 672.512695312 53.447265625 678.53515625 c 0
 58.556640625 680.686523438 63.4921875 683.21875 68.359375 685.907226562 c 2
 72.5234375 689.442382812 l 2
 71.001953125 686.333984375 69.5693359375 683.180664062 68.283203125 679.936523438 c 0
 61.849609375 664.703125 56.244140625 649.153320312 51.123046875 633.385742188 c 0
 41.44921875 602.069335938 35.2919921875 569.747070312 29.56640625 537.426757812 c 0
 21.9384765625 495.790039062 20.1015625 453.408203125 18.87109375 411.134765625 c 0
 17.953125 365.887695312 20.13671875 320.676757812 24.69921875 275.698242188 c 0xf4
 28.52734375 243.159179688 34.197265625 210.634765625 44.28125 179.533203125 c 0
 46.08203125 173.978515625 48.189453125 168.538085938 50.14453125 163.041015625 c 0
 58.943359375 140.140625 71.421875 118.9453125 89.689453125 103.095703125 c 0
 92.7802734375 100.4140625 96.1474609375 98.10546875 99.376953125 95.6103515625 c 0
 115.616210938 85.068359375 134.181640625 78.5615234375 153.3984375 78.533203125 c 0
 157.16796875 78.52734375 160.922851562 79.0234375 164.685546875 79.2685546875 c 0
 168.481445312 79.9951171875 172.325195312 80.4873046875 176.07421875 81.4453125 c 0
 183.127929688 83.2490234375 192.083984375 86.5322265625 198.451171875 90.212890625 c 0
 214.9453125 99.7451171875 229.149414062 107.227539062 242.80078125 119.587890625 c 0
 246.295898438 122.752929688 249.491210938 126.270507812 252.8359375 129.610351562 c 0
 274.813476562 152.266601562 290.678710938 180.004882812 306.275390625 207.614257812 c 0
 322.526367188 237.1640625 336.89453125 267.794921875 350.50390625 298.767578125 c 0
 366.198242188 334.428710938 379.838867188 371.016601562 393.611328125 407.52734375 c 0
 405.541992188 439.081054688 417.577148438 470.58984375 429.82421875 502.0078125 c 1
 428.141601562 490.239257812 426.34375 478.487304688 424.4609375 466.747070312 c 0
 418.494140625 429.91796875 411.283203125 393.318359375 403.375 356.8671875 c 0
 393.772460938 314.7109375 382.209960938 273.043945312 371.087890625 231.278320312 c 0
 359.872070312 188.29296875 346.920898438 145.790039062 333.521484375 103.453125 c 0
 323.697265625 72.29296875 312.97265625 41.3525390625 299.74609375 11.470703125 c 0
 297.259765625 5.8525390625 294.560546875 0.33203125 291.96875 -5.2373046875 c 0
 279.029296875 -32.0205078125 263.690429688 -57.61328125 246.236328125 -81.65625 c 0
 242.807617188 -86.3798828125 239.166992188 -90.9443359375 235.6328125 -95.5888671875 c 0
 214.282226562 -123.43359375 189.877929688 -148.57421875 164.869140625 -173.0390625 c 0
 153.647460938 -183.313476562 142.306640625 -193.518554688 129.994140625 -202.469726562 c 0
 129.637695312 -202.729492188 129.157226562 -203.041015625 128.66015625 -203.359375 c 0
 126.818359375 -204.348632812 124.874023438 -205.404296875 123.720703125 -205.947265625 c 0
 112.836914062 -210.060546875 100.471679688 -212.866210938 89.41015625 -207.600585938 c 0
 87.55859375 -206.719726562 85.9140625 -205.44921875 84.166015625 -204.374023438 c 0
 70.865234375 -193.119140625 67.03125 -179.27734375 64.328125 -162.624023438 c 0
 62.2626953125 -146.081054688 66.2958984375 -130.431640625 73.9765625 -115.837890625 c 0
 75.9189453125 -112.147460938 78.1708984375 -108.630859375 80.267578125 -105.02734375 c 0
 96.9052734375 -80.21484375 117.763671875 -58.4169921875 140.064453125 -38.716796875 c 0
 145.83203125 -33.6220703125 151.840820312 -28.8115234375 157.728515625 -23.859375 c 2
 135.142578125 -33.0517578125 l 2
 129.150390625 -38.08984375 123.041992188 -42.990234375 117.16796875 -48.16796875 c 0
 94.265625 -68.35546875 72.7734375 -90.6123046875 55.662109375 -116.051757812 c 0
 53.498046875 -119.779296875 51.1640625 -123.411132812 49.171875 -127.234375 c 0
 41.275390625 -142.387695312 37.4453125 -158.685546875 39.7421875 -175.770507812 c 0xec
 40.24609375 -178.77734375 40.591796875 -181.814453125 41.25390625 -184.790039062 c 0
 44.20703125 -198.064453125 49.9267578125 -210.830078125 60.2421875 -219.874023438 c 0
 62.09375 -221.127929688 63.82421875 -222.5859375 65.796875 -223.634765625 c 0
 77.3154296875 -229.758789062 90.455078125 -227.407226562 102.13671875 -223.228515625 c 0
 134.65625 -208.53125 163.349609375 -188.03125 188.802734375 -163.08203125 c 0
 213.70703125 -138.495117188 238.009765625 -113.239257812 259.294921875 -85.3330078125 c 0
 262.81640625 -80.65234375 266.439453125 -76.046875 269.859375 -71.291015625 c 0
 287.22265625 -47.142578125 302.391601562 -21.4267578125 315.216796875 5.4462890625 c 0
 331.319335938 40.69921875 345.040039062 76.97265625 356.076171875 114.17578125 c 0
 369.166015625 156.547851562 381.9296875 199.036132812 393.251953125 241.928710938 c 0
 404.580078125 283.772460938 416.240234375 325.547851562 425.90234375 367.82421875 c 0
 434.008789062 404.536132812 441.609375 441.360351562 448.107421875 478.400390625 c 0
 452.598632812 504.733398438 456.741210938 531.127929688 459.8828125 557.6640625 c 0
 461.348632812 569.947265625 462.669921875 582.258789062 464.35546875 594.516601562 c 0
 467.538085938 604.06640625 470.5859375 613.6640625 473.427734375 623.33984375 c 0
 476.814453125 637.4765625 482.190429688 652.6953125 478.830078125 667.385742188 c 0
 478.470703125 668.40625 478.041992188 669.353515625 477.54296875 670.224609375 c 0
 477.749023438 671.619140625 477.95703125 673.01171875 478.19140625 674.40234375 c 2
 475.41015625 673.032226562 l 2
 474.205078125 674.262695312 472.778320312 675.263671875 471.0859375 676.000976562 c 0
 459.666992188 680.127929688 469.875976562 677.48046875 443.7421875 659.294921875 c 0
 444.021484375 657.37890625 443.537109375 655.627929688 443.177734375 653.771484375 c 2
 449.83203125 657.168945312 l 2
 450.293945312 656.873046875 450.712890625 656.51171875 451.1015625 656.108398438 c 0
 450.610351562 651.013671875 449.991210938 645.936523438 449.21875 640.87109375 c 0
 447.112304688 628.266601562 444.545898438 615.7421875 442.43359375 603.139648438 c 0
 440.91796875 594.255859375 439.754882812 585.322265625 438.7265625 576.373046875 c 0
 431.540039062 554.384765625 423.438476562 532.7265625 414.923828125 511.2578125 c 0
 399.876953125 473.0859375 385.182617188 434.766601562 370.671875 396.366210938 c 0
 356.814453125 359.765625 342.962890625 323.141601562 326.978515625 287.4921875 c 0
 313.166992188 256.590820312 298.688476562 225.990234375 282.359375 196.458984375 c 0
 266.663085938 168.885742188 250.540039062 141.297851562 228.1953125 118.986328125 c 0
 224.771484375 115.713867188 221.495117188 112.259765625 217.921875 109.16796875 c 0
 214.836914062 106.499023438 205.6640625 104.03515625 206.572265625 101.637695312 c 0
 198.885742188 98.5693359375 195.6328125 98.2431640625 186.62890625 96.30078125 c 0
 182.934570312 95.9560546875 179.254882812 95.3544921875 175.546875 95.265625 c 0
 156.70703125 94.814453125 138.35546875 100.908203125 122.25390625 110.897460938 c 0
 119.034179688 113.274414062 115.677734375 115.458984375 112.595703125 118.029296875 c 0
 94.3564453125 133.239257812 81.8388671875 153.985351562 72.82421875 176.305664062 c 0
 70.8388671875 181.7265625 68.7001953125 187.084960938 66.869140625 192.564453125 c 0
 56.5859375 223.34375 50.873046875 255.639648438 46.88671875 287.909179688 c 0
 42.1171875 332.713867188 39.72265625 377.786132812 40.982421875 422.88671875 c 0
 42.4423828125 465.177734375 44.66015625 507.567382812 52.548828125 549.171875 c 0
 58.6220703125 581.725585938 65.2509765625 614.262695312 75.900390625 645.5625 c 0
 81.48828125 661.515625 87.6357421875 677.209960938 94.556640625 692.579101562 c 0
 97.310546875 698.606445312 100.2734375 704.590820312 104.037109375 710 c 2
 88.3984375 702.911132812 l 1
 90.798828125 704.94921875 l 2
 87.9912109375 703.229492188 85.1357421875 701.622070312 82.23046875 700.115234375 c 2
 76.75390625 697.634765625 l 2
 76.708984375 697.55078125 76.666015625 697.466796875 76.62109375 697.383789062 c 0
 76.3046875 697.239257812 75.994140625 697.083984375 75.67578125 696.942382812 c 0
 61.4384765625 690.735351562 46.990234375 684.874023438 31.783203125 681.861328125 c 0
 17.125 679.000976562 3.521484375 677.822265625 -11.244140625 680.969726562 c 0
 -22.802734375 683.791992188 -34.0048828125 688.00390625 -44.03515625 694.811523438 c 0
 -50.0673828125 699.390625 -55.337890625 704.728515625 -59.337890625 711.38671875 c 1xf4
446.556640625 658.2265625 m 0
 446.581054688 658.224609375 446.602539062 658.21875 446.626953125 658.215820312 c 2
 445.349609375 657.407226562 l 2
 445.274414062 658.141601562 446.005859375 658.192382812 446.556640625 658.2265625 c 0
EndSplineSet
EndChar

StartChar: Capital
Encoding: 90 90 25
Width: 517
GlyphClass: 2
Flags: HMW
HStem: 47.3145 13.3145 307.588 12.8184 606.227 14.8457
VStem: 551.561 21.2422
LayerCount: 2
Fore
SplineSet
266.923828125 730.890625 m 0
 257.358398438 730.935546875 247.776367188 730.280273438 238.259765625 729.041015625 c 0
 222.837890625 726.229492188 219.63671875 726.09375 204.625 721.552734375 c 0
 174.936523438 712.571289062 148.022460938 697.547851562 121.650390625 682.23828125 c 0
 99.6923828125 668.353515625 78.3828125 653.545898438 58.869140625 636.732421875 c 0
 49.216796875 628.12109375 39.47265625 619.509765625 30.841796875 609.984375 c 0
 26.8134765625 605.087890625 22.951171875 600.094726562 19.439453125 594.857421875 c 2
 46.5546875 606.0703125 l 2
 49.7041015625 611.2734375 53.69140625 615.927734375 57.517578125 620.6953125 c 0
 66.087890625 629.723632812 75.2744140625 638.236328125 84.5703125 646.609375 c 0
 103.642578125 663.1015625 124.475585938 677.618164062 146.017578125 691.1484375 c 0
 150.666015625 693.771484375 155.143554688 696.676757812 159.9609375 699.017578125 c 0
 162.567382812 700.284179688 149.83203125 693.696289062 152.67578125 694.384765625 c 0
 158.182617188 695.71875 162.946289062 698.965820312 168.1953125 701.01171875 c 0
 173.493164062 703.076171875 178.859375 705.00390625 184.30078125 706.7109375 c 0
 199.302734375 711.416992188 202.2578125 711.533203125 217.673828125 714.49609375 c 0
 239.100585938 717.498046875 260.926757812 717.438476562 282.12890625 713.0078125 c 0
 295.063476562 710.3046875 298.506835938 708.624023438 310.751953125 704.27734375 c 0
 328.685546875 696.772460938 344.928710938 686.331054688 359.2109375 673.765625 c 0
 367.970703125 666.059570312 371.129882812 662.295898438 379.05078125 653.869140625 c 0
 393.240234375 636.858398438 405.534179688 618.129882812 411.8203125 597.216796875 c 0
 413.020507812 593.223632812 413.767578125 589.124023438 414.740234375 585.078125 c 0
 417.7734375 567.825195312 417.366210938 550.208007812 413.701171875 533.0625 c 0
 411.174804688 521.2421875 409.118164062 516.350585938 405.1796875 504.8046875 c 0
 397.3359375 484.90234375 387.333984375 465.668945312 374.8203125 447.939453125 c 0
 367.193359375 437.1328125 363.048828125 432.702148438 354.462890625 422.587890625 c 0
 343.635742188 410.635742188 331.256835938 400.059570312 317.60546875 390.97265625 c 0
 314.983398438 389.227539062 312.26953125 387.609375 309.55078125 385.994140625 c 0
 304.095703125 383.879882812 298.990234375 381.04296875 293.703125 378.580078125 c 0
 281.99609375 373.556640625 270.209960938 368.703125 258.388671875 363.919921875 c 0
 243.450195312 360.814453125 228.58203125 357.217773438 214.541015625 351.431640625 c 0
 201.509765625 345.654296875 188.37890625 339.458984375 176.6875 331.4921875 c 0
 175.870117188 331.189453125 176.184570312 331.3046875 175.177734375 330.931640625 c 2
 153.8828125 315.3046875 l 1
 169.53515625 321.213867188 161.453125 318.07421875 178.1171875 324.7578125 c 0
 197.491210938 332.750976562 216.970703125 340.513671875 236.408203125 348.365234375 c 0
 238.295898438 348.790039062 240.184570312 349.208007812 242.072265625 349.619140625 c 0
 263.35546875 353.5234375 285.103515625 356.044921875 306.833984375 355.2265625 c 0
 311.369140625 355.055664062 315.88671875 354.602539062 320.412109375 354.291015625 c 0
 338.499023438 352.370117188 356.205078125 347.768554688 372.109375 339.349609375 c 0
 383.0234375 333.572265625 386.125 330.604492188 395.919921875 323.22265625 c 0
 417.104492188 305.151367188 433.639648438 282.76171875 445.626953125 258.47265625 c 0
 448.294921875 253.068359375 450.48828125 247.470703125 452.91796875 241.970703125 c 0
 465.927734375 209.353515625 471.614257812 174.576171875 470.416015625 139.802734375 c 0
 470.142578125 131.859375 469.1796875 123.952148438 468.560546875 116.025390625 c 0
 463.016601562 71.3349609375 448.670898438 28.052734375 428.79296875 -12.845703125 c 0
 424.46484375 -21.7509765625 419.603515625 -30.4228515625 415.0078125 -39.2109375 c 0
 395.990234375 -72.748046875 372.985351562 -104.57421875 343.43359375 -130.880859375 c 0
 324.532226562 -147.70703125 319.015625 -150.118164062 297.72265625 -163.837890625 c 0
 296.172851562 -164.4453125 294.623046875 -165.053710938 293.072265625 -165.66015625 c 0
 284.756835938 -168.9140625 276.602539062 -172.555664062 268.123046875 -175.419921875 c 0
 244.159179688 -183.514648438 219.120117188 -187.948242188 193.740234375 -189.64453125 c 0
 185.811523438 -190.174804688 177.849609375 -190.12890625 169.904296875 -190.37109375 c 0
 134.771484375 -190.088867188 99.7109375 -185.465820312 65.623046875 -177.58203125 c 0
 60.197265625 -176.327148438 54.83984375 -174.823242188 49.447265625 -173.443359375 c 0
 37.0087890625 -169.861328125 24.5693359375 -166.045898438 12.90625 -160.576171875 c 0
 8.357421875 -158.442382812 3.0830078125 -155.7578125 -0.564453125 -152.259765625 c 0
 -1.8603515625 -151.015625 -2.70703125 -149.423828125 -3.779296875 -148.005859375 c 0
 -4.0810546875 -146.569335938 -4.7373046875 -145.16015625 -4.685546875 -143.697265625 c 0
 -4.45703125 -137.282226562 1.6943359375 -131.293945312 6.0078125 -127.052734375 c 0
 12.45703125 -120.713867188 18.9765625 -115.623046875 26.025390625 -109.796875 c 0
 61.583984375 -81.37890625 98.177734375 -54.1416015625 135.853515625 -28.21484375 c 0
 154.348632812 -16.5693359375 163.489257812 -10.3583984375 182.94921875 0.0390625 c 0
 184.763671875 1.0078125 186.858398438 1.427734375 188.7578125 2.240234375 c 0
 197.700195312 6.0634765625 206.467773438 10.23828125 215.466796875 13.943359375 c 0
 239.584960938 23.8720703125 246.20703125 25.640625 271.025390625 33.984375 c 0
 299.448242188 43.2841796875 328.752929688 49.818359375 357.94140625 56.587890625 c 1
 375.916015625 69.40625 l 1
 346.716796875 62.7001953125 317.388671875 56.267578125 288.947265625 47.03515625 c 0
 263.865234375 38.7041015625 257.723632812 37.12109375 233.337890625 27.20703125 c 0
 191.298828125 10.115234375 151.689453125 -11.8876953125 114.080078125 -36.275390625 c 0
 75.6767578125 -62.7138671875 38.328125 -90.4296875 1.732421875 -119.015625 c 0
 -5.404296875 -124.829101562 -12.974609375 -130.634765625 -19.451171875 -137.14453125 c 0
 -24.515625 -142.236328125 -30.5595703125 -148.889648438 -29.958984375 -156.447265625 c 0
 -29.81640625 -158.229492188 -28.875 -159.875976562 -28.333984375 -161.58984375 c 0
 -27.0263671875 -163.155273438 -25.9501953125 -164.916992188 -24.412109375 -166.287109375 c 0
 -20.3740234375 -169.881835938 -14.7490234375 -172.532226562 -9.802734375 -174.673828125 c 0
 2.3779296875 -179.946289062 15.2646484375 -183.614257812 28.12109375 -187.12109375 c 0
 33.646484375 -188.459960938 39.1396484375 -189.920898438 44.697265625 -191.13671875 c 0
 79.314453125 -198.708984375 114.827148438 -203.3046875 150.39453125 -203.685546875 c 0
 158.420898438 -203.458984375 166.461914062 -203.51953125 174.47265625 -203.00390625 c 0
 190.762695312 -201.955078125 208.447265625 -199.66796875 224.3046875 -196.03125 c 0
 258.618164062 -188.161132812 289.47265625 -173.840820312 319.173828125 -155.958984375 c 0
 340.271484375 -142.0859375 345.748046875 -139.623046875 364.4609375 -122.681640625 c 0
 393.762695312 -96.15625 416.454101562 -64.1728515625 435.3515625 -30.599609375 c 0
 439.951171875 -21.767578125 444.801757812 -13.0458984375 449.1484375 -4.103515625 c 0
 469.227539062 37.197265625 484.081054688 80.7958984375 489.802734375 125.9375 c 0
 490.463867188 133.952148438 491.467773438 141.948242188 491.783203125 149.98046875 c 0
 493.165039062 185.142578125 487.881835938 220.404296875 475.015625 253.5078125 c 0
 472.587890625 259.081054688 470.385742188 264.745117188 467.732421875 270.228515625 c 0
 455.809570312 294.880859375 439.362304688 317.688476562 418.2265625 336.26171875 c 0
 408.438476562 343.853515625 405.243164062 346.966796875 394.30859375 352.9765625 c 0
 378.322265625 361.763671875 360.455078125 366.676757812 342.115234375 368.76171875 c 0
 329.969726562 369.703125 326.895507812 370.211914062 314.6875 370.072265625 c 0
 303.958984375 369.94921875 293.25 369.092773438 282.607421875 367.779296875 c 1
 318.500976562 384.495117188 352.302734375 402.793945312 378.25390625 432.095703125 c 0
 387.05078125 442.633789062 390.615234375 446.426757812 398.404296875 457.6796875 c 0
 410.856445312 475.66796875 420.875 495.083984375 428.759765625 515.173828125 c 0
 432.7578125 526.934570312 434.826171875 531.850585938 437.376953125 543.8984375 c 0
 441.078125 561.374023438 441.514648438 579.330078125 438.275390625 596.89453125 c 0
 437.252929688 601.013671875 436.45703125 605.189453125 435.205078125 609.25390625 c 0
 428.682617188 630.440429688 416.081054688 649.354492188 401.6875 666.62109375 c 0
 393.66796875 675.169921875 390.506835938 678.942382812 381.646484375 686.77734375 c 0
 367.184570312 699.567382812 350.775390625 710.250976562 332.6328125 718 c 0
 320.276367188 722.418945312 316.59375 724.184570312 303.5625 727.005859375 c 0
 291.495117188 729.618164062 279.223632812 730.833007812 266.923828125 730.890625 c 0
207.66796875 343.638671875 m 0
 207.487304688 343.5390625 207.40234375 343.495117188 207.22265625 343.396484375 c 0
 207.172851562 343.375976562 207.123046875 343.356445312 207.072265625 343.3359375 c 1
 207.45703125 343.536132812 208.057617188 343.852539062 207.66796875 343.638671875 c 0
EndSplineSet
EndChar

StartChar: Capital
Encoding: 87 87 26
Width: 506
GlyphClass: 2
Flags: HMW
VStem: 254.646 20.5312<231.365 243.059> 428.174 22.209<264.262 277>
LayerCount: 2
Fore
SplineSet
570.265625 770.318359375 m 2
 544.873046875 758.703125 l 1
 521.311523438 731.419921875 502.26171875 699.904296875 482.330078125 669.4296875 c 0
 453.798828125 623.255859375 426.908203125 575.861328125 402.78515625 526.6953125 c 0
 386.490234375 494.065429688 369.940429688 461.533203125 355.3046875 427.9453125 c 0
 352.904296875 421.94140625 350.497070312 415.883789062 348.353515625 409.7265625 c 1
 344.073242188 428.456054688 339.522460938 447.111328125 334.6328125 465.671875 c 0
 327.25 493.100585938 325.114257812 502.05859375 316.818359375 528.90625 c 0
 305.41015625 565.825195312 292.389648438 602.114257812 278.53515625 637.990234375 c 0
 264.540039062 672.735351562 250.377929688 707.8046875 230.078125 738.755859375 c 0
 222.5390625 749.521484375 214.822265625 760.318359375 205.146484375 768.884765625 c 1
 180.236328125 751.2890625 l 1
 190.552734375 743.942382812 198.509765625 733.333984375 206.365234375 723.1015625 c 0
 227.73046875 693.31640625 242.665039062 658.896484375 257.224609375 624.712890625 c 0
 271.6484375 589.26171875 284.932617188 553.21875 296.59765625 516.544921875 c 0
 304.833984375 490.649414062 307.48046875 480.166015625 314.830078125 453.724609375 c 0
 333.498046875 385.319335938 346.97265625 315.40625 358.404296875 245.1484375 c 0
 366.247070312 197.217773438 371.37890625 148.84765625 374.173828125 100.26171875 c 1
 396.3828125 113 l 1
 391.916992188 161.125 385.833007812 209.041015625 377.98046875 256.64453125 c 0
 370.517578125 301.594726562 362.2734375 346.401367188 352.576171875 390.82421875 c 1
 368.439453125 399.740234375 l 1
 370.099609375 414.041992188 375.202148438 427.403320312 380.240234375 440.576171875 c 0
 394.115234375 473.641601562 409.814453125 505.734375 425.3671875 537.865234375 c 0
 448.768554688 587.118164062 475.595703125 634.205078125 504.197265625 679.947265625 c 0
 522.997070312 707.848632812 540.801757812 736.983398438 562.66015625 762.185546875 c 0
 565.1015625 765 567.73046875 767.607421875 570.265625 770.318359375 c 2
24.904296875 749.380859375 m 1
 0 731.60546875 l 1
 10.0263671875 726.163085938 19.05078125 718.915039062 27.87109375 711.419921875 c 0
 45.9521484375 695.209960938 61.291015625 675.665039062 74.27734375 654.37109375 c 0
 77.9453125 648.35546875 81.2998046875 642.11328125 84.810546875 635.984375 c 0
 104.794921875 598.34375 121.099609375 558.377929688 134.216796875 517.2421875 c 0
 137.216796875 507.833984375 139.889648438 498.303710938 142.7265625 488.833984375 c 0
 161.509765625 422.078125 172.563476562 353.139648438 182.59765625 284.25390625 c 0
 192.536132812 212.40234375 197.846679688 139.940429688 200.646484375 67.365234375 c 1
 221.177734375 79.05859375 l 1
 216.909179688 151.399414062 211.184570312 223.655273438 201.7265625 295.423828125 c 0
 198.647460938 317.505859375 195.447265625 339.588867188 191.9375 361.609375 c 1
 200.11328125 366.431640625 l 1
 199.375 377.631835938 202.186523438 388.690429688 204.67578125 399.443359375 c 0
 210.903320312 424.017578125 221.265625 446.822265625 232.365234375 469.076171875 c 0
 243.853515625 490.33203125 257.434570312 510.29296875 273.2734375 527.857421875 c 0
 276.205078125 531.108398438 279.30859375 534.168945312 282.326171875 537.32421875 c 2
 257.38671875 525.990234375 l 2
 254.421875 522.797851562 251.373046875 519.698242188 248.4921875 516.4140625 c 0
 232.826171875 498.5546875 219.391601562 478.388671875 207.9453125 457.017578125 c 0
 199.310546875 439.71484375 191.1328125 422.081054688 184.783203125 403.623046875 c 1
 178.80078125 436.473632812 171.842773438 469.095703125 163.220703125 501.263671875 c 0
 160.459960938 510.818359375 157.87109375 520.434570312 154.939453125 529.927734375 c 0
 142.125 571.423828125 125.935546875 611.659179688 106.58984375 649.947265625 c 0
 103.189453125 656.2109375 99.94140625 662.576171875 96.388671875 668.736328125 c 0
 83.8388671875 690.49609375 69.0625 710.711914062 51.46875 727.759765625 c 0
 43.025390625 735.57421875 34.3505859375 743.073242188 24.904296875 749.380859375 c 1
EndSplineSet
EndChar
